<mxfile host="app.diagrams.net" modified="2021-09-04T13:27:48.625Z" agent="5.0 (Windows NT 10.0; Win64; x64) AppleWebKit/537.36 (KHTML, like Gecko) Chrome/93.0.4577.63 Safari/537.36" etag="A00ckAVSdSSfITtAlysH" version="15.0.6" type="github">
  <diagram id="rRx4HlbQsBdlPWeHafFa" name="Page-1">
    <mxGraphModel dx="2500" dy="907" grid="1" gridSize="10" guides="1" tooltips="1" connect="1" arrows="1" fold="1" page="1" pageScale="1" pageWidth="827" pageHeight="1169" math="0" shadow="0">
      <root>
        <mxCell id="0" />
        <mxCell id="1" parent="0" />
        <mxCell id="pduw1BFFSuMTtjPy8Jkl-84" style="edgeStyle=orthogonalEdgeStyle;rounded=0;orthogonalLoop=1;jettySize=auto;html=1;entryX=0.5;entryY=0;entryDx=0;entryDy=0;fillColor=#1ba1e2;strokeColor=#006EAF;fontSize=18;" parent="1" source="pduw1BFFSuMTtjPy8Jkl-1" target="pduw1BFFSuMTtjPy8Jkl-2" edge="1">
          <mxGeometry relative="1" as="geometry" />
        </mxCell>
        <mxCell id="pduw1BFFSuMTtjPy8Jkl-85" style="edgeStyle=orthogonalEdgeStyle;rounded=0;orthogonalLoop=1;jettySize=auto;html=1;entryX=0.642;entryY=-0.028;entryDx=0;entryDy=0;entryPerimeter=0;fillColor=#1ba1e2;strokeColor=#006EAF;fontSize=18;" parent="1" source="pduw1BFFSuMTtjPy8Jkl-1" target="pduw1BFFSuMTtjPy8Jkl-66" edge="1">
          <mxGeometry relative="1" as="geometry" />
        </mxCell>
        <mxCell id="pduw1BFFSuMTtjPy8Jkl-1" value="记账子系统" style="rounded=1;whiteSpace=wrap;html=1;fillColor=#1ba1e2;strokeColor=#006EAF;fontColor=#ffffff;fontSize=18;" parent="1" vertex="1">
          <mxGeometry x="450" y="160" width="120" height="60" as="geometry" />
        </mxCell>
        <mxCell id="pduw1BFFSuMTtjPy8Jkl-43" style="edgeStyle=orthogonalEdgeStyle;rounded=0;orthogonalLoop=1;jettySize=auto;html=1;entryX=0.5;entryY=0;entryDx=0;entryDy=0;fillColor=#1ba1e2;strokeColor=#006EAF;fontSize=18;" parent="1" source="pduw1BFFSuMTtjPy8Jkl-2" target="pduw1BFFSuMTtjPy8Jkl-8" edge="1">
          <mxGeometry relative="1" as="geometry" />
        </mxCell>
        <mxCell id="pduw1BFFSuMTtjPy8Jkl-46" style="edgeStyle=orthogonalEdgeStyle;rounded=0;orthogonalLoop=1;jettySize=auto;html=1;entryX=0.5;entryY=0;entryDx=0;entryDy=0;fillColor=#1ba1e2;strokeColor=#006EAF;fontSize=18;" parent="1" source="pduw1BFFSuMTtjPy8Jkl-2" target="pduw1BFFSuMTtjPy8Jkl-10" edge="1">
          <mxGeometry relative="1" as="geometry" />
        </mxCell>
        <mxCell id="pduw1BFFSuMTtjPy8Jkl-55" style="edgeStyle=orthogonalEdgeStyle;rounded=0;orthogonalLoop=1;jettySize=auto;html=1;entryX=0.5;entryY=0;entryDx=0;entryDy=0;fillColor=#1ba1e2;strokeColor=#006EAF;fontSize=18;" parent="1" source="pduw1BFFSuMTtjPy8Jkl-2" target="pduw1BFFSuMTtjPy8Jkl-11" edge="1">
          <mxGeometry relative="1" as="geometry" />
        </mxCell>
        <mxCell id="pduw1BFFSuMTtjPy8Jkl-60" style="edgeStyle=orthogonalEdgeStyle;rounded=0;orthogonalLoop=1;jettySize=auto;html=1;entryX=0.5;entryY=0;entryDx=0;entryDy=0;fillColor=#1ba1e2;strokeColor=#006EAF;fontSize=18;" parent="1" source="pduw1BFFSuMTtjPy8Jkl-2" target="pduw1BFFSuMTtjPy8Jkl-12" edge="1">
          <mxGeometry relative="1" as="geometry" />
        </mxCell>
        <mxCell id="pduw1BFFSuMTtjPy8Jkl-2" value="账目管理" style="rounded=1;whiteSpace=wrap;html=1;fillColor=#1ba1e2;strokeColor=#006EAF;fontColor=#ffffff;fontSize=18;" parent="1" vertex="1">
          <mxGeometry x="80" y="230" width="120" height="60" as="geometry" />
        </mxCell>
        <mxCell id="pduw1BFFSuMTtjPy8Jkl-4" value="" style="rounded=1;whiteSpace=wrap;html=1;" parent="1" vertex="1">
          <mxGeometry x="1410" y="170" width="120" height="60" as="geometry" />
        </mxCell>
        <mxCell id="pduw1BFFSuMTtjPy8Jkl-18" style="edgeStyle=orthogonalEdgeStyle;rounded=0;orthogonalLoop=1;jettySize=auto;html=1;entryX=0.5;entryY=0;entryDx=0;entryDy=0;fillColor=#1ba1e2;strokeColor=#006EAF;fontSize=18;" parent="1" source="pduw1BFFSuMTtjPy8Jkl-6" target="pduw1BFFSuMTtjPy8Jkl-14" edge="1">
          <mxGeometry relative="1" as="geometry" />
        </mxCell>
        <mxCell id="pduw1BFFSuMTtjPy8Jkl-6" value="收入" style="rounded=1;whiteSpace=wrap;html=1;fillColor=#1ba1e2;strokeColor=#006EAF;fontColor=#ffffff;fontSize=18;" parent="1" vertex="1">
          <mxGeometry x="-40" y="480" width="50" height="120" as="geometry" />
        </mxCell>
        <mxCell id="pduw1BFFSuMTtjPy8Jkl-34" style="edgeStyle=orthogonalEdgeStyle;rounded=0;orthogonalLoop=1;jettySize=auto;html=1;entryX=0.5;entryY=0;entryDx=0;entryDy=0;fillColor=#1ba1e2;strokeColor=#006EAF;fontSize=18;" parent="1" source="pduw1BFFSuMTtjPy8Jkl-8" target="pduw1BFFSuMTtjPy8Jkl-9" edge="1">
          <mxGeometry relative="1" as="geometry" />
        </mxCell>
        <mxCell id="pduw1BFFSuMTtjPy8Jkl-42" style="edgeStyle=orthogonalEdgeStyle;rounded=0;orthogonalLoop=1;jettySize=auto;html=1;entryX=0.5;entryY=0;entryDx=0;entryDy=0;fillColor=#1ba1e2;strokeColor=#006EAF;fontSize=18;" parent="1" source="pduw1BFFSuMTtjPy8Jkl-8" target="pduw1BFFSuMTtjPy8Jkl-6" edge="1">
          <mxGeometry relative="1" as="geometry" />
        </mxCell>
        <mxCell id="pduw1BFFSuMTtjPy8Jkl-8" value="新建账目" style="rounded=1;whiteSpace=wrap;html=1;fillColor=#1ba1e2;strokeColor=#006EAF;fontColor=#ffffff;fontSize=18;" parent="1" vertex="1">
          <mxGeometry x="10" y="310" width="50" height="120" as="geometry" />
        </mxCell>
        <mxCell id="pduw1BFFSuMTtjPy8Jkl-32" value="" style="edgeStyle=orthogonalEdgeStyle;rounded=0;orthogonalLoop=1;jettySize=auto;html=1;fillColor=#1ba1e2;strokeColor=#006EAF;fontSize=18;" parent="1" source="pduw1BFFSuMTtjPy8Jkl-9" target="pduw1BFFSuMTtjPy8Jkl-27" edge="1">
          <mxGeometry relative="1" as="geometry" />
        </mxCell>
        <mxCell id="pduw1BFFSuMTtjPy8Jkl-9" value="支出" style="rounded=1;whiteSpace=wrap;html=1;fillColor=#1ba1e2;strokeColor=#006EAF;fontColor=#ffffff;fontSize=18;" parent="1" vertex="1">
          <mxGeometry x="50" y="480" width="50" height="120" as="geometry" />
        </mxCell>
        <mxCell id="pduw1BFFSuMTtjPy8Jkl-45" style="edgeStyle=orthogonalEdgeStyle;rounded=0;orthogonalLoop=1;jettySize=auto;html=1;entryX=0.5;entryY=0;entryDx=0;entryDy=0;fillColor=#1ba1e2;strokeColor=#006EAF;fontSize=18;" parent="1" source="pduw1BFFSuMTtjPy8Jkl-10" target="pduw1BFFSuMTtjPy8Jkl-44" edge="1">
          <mxGeometry relative="1" as="geometry" />
        </mxCell>
        <mxCell id="pduw1BFFSuMTtjPy8Jkl-10" value="删除账目" style="rounded=1;whiteSpace=wrap;html=1;fillColor=#1ba1e2;strokeColor=#006EAF;fontColor=#ffffff;fontSize=18;" parent="1" vertex="1">
          <mxGeometry x="330" y="310" width="50" height="120" as="geometry" />
        </mxCell>
        <mxCell id="pduw1BFFSuMTtjPy8Jkl-49" style="edgeStyle=orthogonalEdgeStyle;rounded=0;orthogonalLoop=1;jettySize=auto;html=1;fillColor=#1ba1e2;strokeColor=#006EAF;fontSize=18;" parent="1" source="pduw1BFFSuMTtjPy8Jkl-11" edge="1">
          <mxGeometry relative="1" as="geometry">
            <mxPoint x="465" y="460" as="targetPoint" />
          </mxGeometry>
        </mxCell>
        <mxCell id="pduw1BFFSuMTtjPy8Jkl-52" style="edgeStyle=orthogonalEdgeStyle;rounded=0;orthogonalLoop=1;jettySize=auto;html=1;fillColor=#1ba1e2;strokeColor=#006EAF;fontSize=18;" parent="1" source="pduw1BFFSuMTtjPy8Jkl-11" target="pduw1BFFSuMTtjPy8Jkl-47" edge="1">
          <mxGeometry relative="1" as="geometry" />
        </mxCell>
        <mxCell id="pduw1BFFSuMTtjPy8Jkl-11" value="修改账目" style="rounded=1;whiteSpace=wrap;html=1;fillColor=#1ba1e2;strokeColor=#006EAF;fontColor=#ffffff;fontSize=18;" parent="1" vertex="1">
          <mxGeometry x="440" y="310" width="50" height="120" as="geometry" />
        </mxCell>
        <mxCell id="pduw1BFFSuMTtjPy8Jkl-58" style="edgeStyle=orthogonalEdgeStyle;rounded=0;orthogonalLoop=1;jettySize=auto;html=1;entryX=0.5;entryY=0;entryDx=0;entryDy=0;fillColor=#1ba1e2;strokeColor=#006EAF;fontSize=18;" parent="1" source="pduw1BFFSuMTtjPy8Jkl-12" target="pduw1BFFSuMTtjPy8Jkl-56" edge="1">
          <mxGeometry relative="1" as="geometry" />
        </mxCell>
        <mxCell id="pduw1BFFSuMTtjPy8Jkl-59" style="edgeStyle=orthogonalEdgeStyle;rounded=0;orthogonalLoop=1;jettySize=auto;html=1;entryX=0.5;entryY=0;entryDx=0;entryDy=0;fillColor=#1ba1e2;strokeColor=#006EAF;fontSize=18;" parent="1" source="pduw1BFFSuMTtjPy8Jkl-12" target="pduw1BFFSuMTtjPy8Jkl-57" edge="1">
          <mxGeometry relative="1" as="geometry" />
        </mxCell>
        <mxCell id="pduw1BFFSuMTtjPy8Jkl-12" value="查询账目" style="rounded=1;whiteSpace=wrap;html=1;fillColor=#1ba1e2;strokeColor=#006EAF;fontColor=#ffffff;fontSize=18;" parent="1" vertex="1">
          <mxGeometry x="540" y="310" width="50" height="120" as="geometry" />
        </mxCell>
        <mxCell id="pduw1BFFSuMTtjPy8Jkl-13" value="消费钱数" style="rounded=1;whiteSpace=wrap;html=1;fillColor=#1ba1e2;strokeColor=#006EAF;fontColor=#ffffff;fontSize=18;" parent="1" vertex="1">
          <mxGeometry x="-120" y="660" width="50" height="120" as="geometry" />
        </mxCell>
        <mxCell id="pduw1BFFSuMTtjPy8Jkl-14" value="日期选择" style="rounded=1;whiteSpace=wrap;html=1;fillColor=#1ba1e2;strokeColor=#006EAF;fontColor=#ffffff;fontSize=18;" parent="1" vertex="1">
          <mxGeometry x="-60" y="660" width="50" height="120" as="geometry" />
        </mxCell>
        <mxCell id="pduw1BFFSuMTtjPy8Jkl-15" value="备注说明" style="rounded=1;whiteSpace=wrap;html=1;fillColor=#1ba1e2;strokeColor=#006EAF;fontColor=#ffffff;fontSize=18;" parent="1" vertex="1">
          <mxGeometry y="660" width="50" height="120" as="geometry" />
        </mxCell>
        <mxCell id="pduw1BFFSuMTtjPy8Jkl-17" value="分类选择" style="rounded=1;whiteSpace=wrap;html=1;fillColor=#1ba1e2;strokeColor=#006EAF;fontColor=#ffffff;fontSize=18;" parent="1" vertex="1">
          <mxGeometry x="-180" y="660" width="50" height="120" as="geometry" />
        </mxCell>
        <mxCell id="pduw1BFFSuMTtjPy8Jkl-19" value="" style="endArrow=none;html=1;fillColor=#1ba1e2;strokeColor=#006EAF;fontSize=18;" parent="1" edge="1">
          <mxGeometry width="50" height="50" relative="1" as="geometry">
            <mxPoint x="-160" y="630" as="sourcePoint" />
            <mxPoint x="30" y="630" as="targetPoint" />
          </mxGeometry>
        </mxCell>
        <mxCell id="pduw1BFFSuMTtjPy8Jkl-20" value="" style="endArrow=classic;html=1;entryX=0.5;entryY=0;entryDx=0;entryDy=0;fillColor=#1ba1e2;strokeColor=#006EAF;fontSize=18;" parent="1" target="pduw1BFFSuMTtjPy8Jkl-17" edge="1">
          <mxGeometry width="50" height="50" relative="1" as="geometry">
            <mxPoint x="-155" y="630" as="sourcePoint" />
            <mxPoint x="440" y="590" as="targetPoint" />
          </mxGeometry>
        </mxCell>
        <mxCell id="pduw1BFFSuMTtjPy8Jkl-21" value="" style="endArrow=classic;html=1;entryX=0.5;entryY=0;entryDx=0;entryDy=0;fillColor=#1ba1e2;strokeColor=#006EAF;fontSize=18;" parent="1" target="pduw1BFFSuMTtjPy8Jkl-13" edge="1">
          <mxGeometry width="50" height="50" relative="1" as="geometry">
            <mxPoint x="-95" y="630" as="sourcePoint" />
            <mxPoint x="-145" y="670" as="targetPoint" />
          </mxGeometry>
        </mxCell>
        <mxCell id="pduw1BFFSuMTtjPy8Jkl-22" value="" style="endArrow=classic;html=1;entryX=0.5;entryY=0;entryDx=0;entryDy=0;fillColor=#1ba1e2;strokeColor=#006EAF;fontSize=18;" parent="1" target="pduw1BFFSuMTtjPy8Jkl-15" edge="1">
          <mxGeometry width="50" height="50" relative="1" as="geometry">
            <mxPoint x="25" y="630" as="sourcePoint" />
            <mxPoint x="-135" y="680" as="targetPoint" />
          </mxGeometry>
        </mxCell>
        <mxCell id="pduw1BFFSuMTtjPy8Jkl-24" value="消费钱数" style="rounded=1;whiteSpace=wrap;html=1;fillColor=#1ba1e2;strokeColor=#006EAF;fontColor=#ffffff;fontSize=18;" parent="1" vertex="1">
          <mxGeometry x="120" y="660" width="50" height="120" as="geometry" />
        </mxCell>
        <mxCell id="pduw1BFFSuMTtjPy8Jkl-25" value="日期选择" style="rounded=1;whiteSpace=wrap;html=1;fillColor=#1ba1e2;strokeColor=#006EAF;fontColor=#ffffff;fontSize=18;" parent="1" vertex="1">
          <mxGeometry x="180" y="660" width="50" height="120" as="geometry" />
        </mxCell>
        <mxCell id="pduw1BFFSuMTtjPy8Jkl-26" value="备注说明" style="rounded=1;whiteSpace=wrap;html=1;fillColor=#1ba1e2;strokeColor=#006EAF;fontColor=#ffffff;fontSize=18;" parent="1" vertex="1">
          <mxGeometry x="240" y="660" width="50" height="120" as="geometry" />
        </mxCell>
        <mxCell id="pduw1BFFSuMTtjPy8Jkl-27" value="分类选择" style="rounded=1;whiteSpace=wrap;html=1;fillColor=#1ba1e2;strokeColor=#006EAF;fontColor=#ffffff;fontSize=18;" parent="1" vertex="1">
          <mxGeometry x="60" y="660" width="50" height="120" as="geometry" />
        </mxCell>
        <mxCell id="pduw1BFFSuMTtjPy8Jkl-28" value="" style="endArrow=none;html=1;fillColor=#1ba1e2;strokeColor=#006EAF;fontSize=18;" parent="1" edge="1">
          <mxGeometry width="50" height="50" relative="1" as="geometry">
            <mxPoint x="80" y="630" as="sourcePoint" />
            <mxPoint x="270" y="630" as="targetPoint" />
          </mxGeometry>
        </mxCell>
        <mxCell id="pduw1BFFSuMTtjPy8Jkl-29" value="" style="endArrow=classic;html=1;entryX=0.5;entryY=0;entryDx=0;entryDy=0;fillColor=#1ba1e2;strokeColor=#006EAF;fontSize=18;" parent="1" target="pduw1BFFSuMTtjPy8Jkl-27" edge="1">
          <mxGeometry width="50" height="50" relative="1" as="geometry">
            <mxPoint x="85" y="630" as="sourcePoint" />
            <mxPoint x="680" y="590" as="targetPoint" />
          </mxGeometry>
        </mxCell>
        <mxCell id="pduw1BFFSuMTtjPy8Jkl-30" value="" style="endArrow=classic;html=1;entryX=0.5;entryY=0;entryDx=0;entryDy=0;fillColor=#1ba1e2;strokeColor=#006EAF;fontSize=18;" parent="1" target="pduw1BFFSuMTtjPy8Jkl-24" edge="1">
          <mxGeometry width="50" height="50" relative="1" as="geometry">
            <mxPoint x="145" y="630" as="sourcePoint" />
            <mxPoint x="95" y="670" as="targetPoint" />
          </mxGeometry>
        </mxCell>
        <mxCell id="pduw1BFFSuMTtjPy8Jkl-31" value="" style="endArrow=classic;html=1;entryX=0.5;entryY=0;entryDx=0;entryDy=0;fillColor=#1ba1e2;strokeColor=#006EAF;fontSize=18;" parent="1" target="pduw1BFFSuMTtjPy8Jkl-26" edge="1">
          <mxGeometry width="50" height="50" relative="1" as="geometry">
            <mxPoint x="265" y="630" as="sourcePoint" />
            <mxPoint x="105" y="680" as="targetPoint" />
          </mxGeometry>
        </mxCell>
        <mxCell id="pduw1BFFSuMTtjPy8Jkl-33" value="" style="endArrow=classic;html=1;fillColor=#1ba1e2;strokeColor=#006EAF;fontSize=18;" parent="1" target="pduw1BFFSuMTtjPy8Jkl-25" edge="1">
          <mxGeometry width="50" height="50" relative="1" as="geometry">
            <mxPoint x="203" y="630" as="sourcePoint" />
            <mxPoint x="275" y="670" as="targetPoint" />
          </mxGeometry>
        </mxCell>
        <mxCell id="pduw1BFFSuMTtjPy8Jkl-44" value="确认删除" style="rounded=1;whiteSpace=wrap;html=1;fillColor=#1ba1e2;strokeColor=#006EAF;fontColor=#ffffff;fontSize=18;" parent="1" vertex="1">
          <mxGeometry x="330" y="464" width="50" height="120" as="geometry" />
        </mxCell>
        <mxCell id="pduw1BFFSuMTtjPy8Jkl-54" style="edgeStyle=orthogonalEdgeStyle;rounded=0;orthogonalLoop=1;jettySize=auto;html=1;fillColor=#1ba1e2;strokeColor=#006EAF;fontSize=18;" parent="1" source="pduw1BFFSuMTtjPy8Jkl-47" target="pduw1BFFSuMTtjPy8Jkl-48" edge="1">
          <mxGeometry relative="1" as="geometry" />
        </mxCell>
        <mxCell id="pduw1BFFSuMTtjPy8Jkl-47" value="选择分类" style="rounded=1;whiteSpace=wrap;html=1;fillColor=#1ba1e2;strokeColor=#006EAF;fontColor=#ffffff;fontSize=18;" parent="1" vertex="1">
          <mxGeometry x="440" y="464" width="50" height="120" as="geometry" />
        </mxCell>
        <mxCell id="pduw1BFFSuMTtjPy8Jkl-48" value="选择修改属性" style="rounded=1;whiteSpace=wrap;html=1;fillColor=#1ba1e2;strokeColor=#006EAF;fontColor=#ffffff;fontSize=18;" parent="1" vertex="1">
          <mxGeometry x="440" y="660" width="50" height="120" as="geometry" />
        </mxCell>
        <mxCell id="pduw1BFFSuMTtjPy8Jkl-56" value="日期查询" style="rounded=1;whiteSpace=wrap;html=1;fillColor=#1ba1e2;strokeColor=#006EAF;fontColor=#ffffff;fontSize=18;" parent="1" vertex="1">
          <mxGeometry x="510" y="464" width="50" height="120" as="geometry" />
        </mxCell>
        <mxCell id="pduw1BFFSuMTtjPy8Jkl-57" value="收入支出类型查询" style="rounded=1;whiteSpace=wrap;html=1;fillColor=#1ba1e2;strokeColor=#006EAF;fontColor=#ffffff;fontSize=18;" parent="1" vertex="1">
          <mxGeometry x="570" y="464" width="50" height="120" as="geometry" />
        </mxCell>
        <mxCell id="pduw1BFFSuMTtjPy8Jkl-62" style="edgeStyle=orthogonalEdgeStyle;rounded=0;orthogonalLoop=1;jettySize=auto;html=1;entryX=0.5;entryY=0;entryDx=0;entryDy=0;fillColor=#1ba1e2;strokeColor=#006EAF;fontSize=18;" parent="1" source="pduw1BFFSuMTtjPy8Jkl-66" target="pduw1BFFSuMTtjPy8Jkl-67" edge="1">
          <mxGeometry relative="1" as="geometry" />
        </mxCell>
        <mxCell id="pduw1BFFSuMTtjPy8Jkl-63" style="edgeStyle=orthogonalEdgeStyle;rounded=0;orthogonalLoop=1;jettySize=auto;html=1;entryX=0.5;entryY=0;entryDx=0;entryDy=0;fillColor=#1ba1e2;strokeColor=#006EAF;fontSize=18;" parent="1" source="pduw1BFFSuMTtjPy8Jkl-66" target="pduw1BFFSuMTtjPy8Jkl-68" edge="1">
          <mxGeometry relative="1" as="geometry" />
        </mxCell>
        <mxCell id="pduw1BFFSuMTtjPy8Jkl-64" style="edgeStyle=orthogonalEdgeStyle;rounded=0;orthogonalLoop=1;jettySize=auto;html=1;entryX=0.5;entryY=0;entryDx=0;entryDy=0;fillColor=#1ba1e2;strokeColor=#006EAF;fontSize=18;" parent="1" source="pduw1BFFSuMTtjPy8Jkl-66" target="pduw1BFFSuMTtjPy8Jkl-69" edge="1">
          <mxGeometry relative="1" as="geometry" />
        </mxCell>
        <mxCell id="pduw1BFFSuMTtjPy8Jkl-65" style="edgeStyle=orthogonalEdgeStyle;rounded=0;orthogonalLoop=1;jettySize=auto;html=1;entryX=0.5;entryY=0;entryDx=0;entryDy=0;fillColor=#1ba1e2;strokeColor=#006EAF;fontSize=18;" parent="1" source="pduw1BFFSuMTtjPy8Jkl-66" target="pduw1BFFSuMTtjPy8Jkl-70" edge="1">
          <mxGeometry relative="1" as="geometry" />
        </mxCell>
        <mxCell id="pduw1BFFSuMTtjPy8Jkl-66" value="分类管理" style="rounded=1;whiteSpace=wrap;html=1;fillColor=#1ba1e2;strokeColor=#006EAF;fontColor=#ffffff;fontSize=18;" parent="1" vertex="1">
          <mxGeometry x="810" y="230" width="120" height="60" as="geometry" />
        </mxCell>
        <mxCell id="pduw1BFFSuMTtjPy8Jkl-80" style="edgeStyle=orthogonalEdgeStyle;rounded=0;orthogonalLoop=1;jettySize=auto;html=1;entryX=0.5;entryY=0;entryDx=0;entryDy=0;fillColor=#1ba1e2;strokeColor=#006EAF;fontSize=18;" parent="1" source="pduw1BFFSuMTtjPy8Jkl-67" target="pduw1BFFSuMTtjPy8Jkl-77" edge="1">
          <mxGeometry relative="1" as="geometry" />
        </mxCell>
        <mxCell id="pduw1BFFSuMTtjPy8Jkl-81" style="edgeStyle=orthogonalEdgeStyle;rounded=0;orthogonalLoop=1;jettySize=auto;html=1;fillColor=#1ba1e2;strokeColor=#006EAF;fontSize=18;" parent="1" source="pduw1BFFSuMTtjPy8Jkl-67" target="pduw1BFFSuMTtjPy8Jkl-78" edge="1">
          <mxGeometry relative="1" as="geometry" />
        </mxCell>
        <mxCell id="pduw1BFFSuMTtjPy8Jkl-83" style="edgeStyle=orthogonalEdgeStyle;rounded=0;orthogonalLoop=1;jettySize=auto;html=1;entryX=0.5;entryY=0;entryDx=0;entryDy=0;fillColor=#1ba1e2;strokeColor=#006EAF;fontSize=18;" parent="1" source="pduw1BFFSuMTtjPy8Jkl-67" target="pduw1BFFSuMTtjPy8Jkl-77" edge="1">
          <mxGeometry relative="1" as="geometry" />
        </mxCell>
        <mxCell id="pduw1BFFSuMTtjPy8Jkl-67" value="新建分类" style="rounded=1;whiteSpace=wrap;html=1;fillColor=#1ba1e2;strokeColor=#006EAF;fontColor=#ffffff;fontSize=18;" parent="1" vertex="1">
          <mxGeometry x="740" y="310" width="50" height="120" as="geometry" />
        </mxCell>
        <mxCell id="pduw1BFFSuMTtjPy8Jkl-72" style="edgeStyle=orthogonalEdgeStyle;rounded=0;orthogonalLoop=1;jettySize=auto;html=1;entryX=0.5;entryY=0;entryDx=0;entryDy=0;fillColor=#1ba1e2;strokeColor=#006EAF;fontSize=18;" parent="1" source="pduw1BFFSuMTtjPy8Jkl-68" target="pduw1BFFSuMTtjPy8Jkl-71" edge="1">
          <mxGeometry relative="1" as="geometry" />
        </mxCell>
        <mxCell id="pduw1BFFSuMTtjPy8Jkl-68" value="删除分类" style="rounded=1;whiteSpace=wrap;html=1;fillColor=#1ba1e2;strokeColor=#006EAF;fontColor=#ffffff;fontSize=18;" parent="1" vertex="1">
          <mxGeometry x="940" y="326" width="50" height="120" as="geometry" />
        </mxCell>
        <mxCell id="pduw1BFFSuMTtjPy8Jkl-74" style="edgeStyle=orthogonalEdgeStyle;rounded=0;orthogonalLoop=1;jettySize=auto;html=1;fillColor=#1ba1e2;strokeColor=#006EAF;fontSize=18;" parent="1" source="pduw1BFFSuMTtjPy8Jkl-69" target="pduw1BFFSuMTtjPy8Jkl-73" edge="1">
          <mxGeometry relative="1" as="geometry" />
        </mxCell>
        <mxCell id="pduw1BFFSuMTtjPy8Jkl-69" value="修改分类" style="rounded=1;whiteSpace=wrap;html=1;fillColor=#1ba1e2;strokeColor=#006EAF;fontColor=#ffffff;fontSize=18;" parent="1" vertex="1">
          <mxGeometry x="1050" y="326" width="50" height="120" as="geometry" />
        </mxCell>
        <mxCell id="pduw1BFFSuMTtjPy8Jkl-76" style="edgeStyle=orthogonalEdgeStyle;rounded=0;orthogonalLoop=1;jettySize=auto;html=1;fillColor=#1ba1e2;strokeColor=#006EAF;fontSize=18;" parent="1" source="pduw1BFFSuMTtjPy8Jkl-70" target="pduw1BFFSuMTtjPy8Jkl-75" edge="1">
          <mxGeometry relative="1" as="geometry" />
        </mxCell>
        <mxCell id="pduw1BFFSuMTtjPy8Jkl-70" value="查询分类" style="rounded=1;whiteSpace=wrap;html=1;fillColor=#1ba1e2;strokeColor=#006EAF;fontColor=#ffffff;fontSize=18;" parent="1" vertex="1">
          <mxGeometry x="1150" y="326" width="50" height="120" as="geometry" />
        </mxCell>
        <mxCell id="pduw1BFFSuMTtjPy8Jkl-71" value="确认删除" style="rounded=1;whiteSpace=wrap;html=1;fillColor=#1ba1e2;strokeColor=#006EAF;fontColor=#ffffff;fontSize=18;" parent="1" vertex="1">
          <mxGeometry x="940" y="480" width="50" height="120" as="geometry" />
        </mxCell>
        <mxCell id="pduw1BFFSuMTtjPy8Jkl-73" value="选择修改属性" style="rounded=1;whiteSpace=wrap;html=1;fillColor=#1ba1e2;strokeColor=#006EAF;fontColor=#ffffff;fontSize=18;" parent="1" vertex="1">
          <mxGeometry x="1050" y="480" width="50" height="120" as="geometry" />
        </mxCell>
        <mxCell id="pduw1BFFSuMTtjPy8Jkl-75" value="名称查询" style="rounded=1;whiteSpace=wrap;html=1;fillColor=#1ba1e2;strokeColor=#006EAF;fontColor=#ffffff;fontSize=18;" parent="1" vertex="1">
          <mxGeometry x="1150" y="476" width="50" height="120" as="geometry" />
        </mxCell>
        <mxCell id="pduw1BFFSuMTtjPy8Jkl-77" value="选择图片" style="rounded=1;whiteSpace=wrap;html=1;fillColor=#1ba1e2;strokeColor=#006EAF;fontColor=#ffffff;fontSize=18;" parent="1" vertex="1">
          <mxGeometry x="710" y="470" width="50" height="120" as="geometry" />
        </mxCell>
        <mxCell id="pduw1BFFSuMTtjPy8Jkl-78" value="输入名称" style="rounded=1;whiteSpace=wrap;html=1;fillColor=#1ba1e2;strokeColor=#006EAF;fontColor=#ffffff;fontSize=18;" parent="1" vertex="1">
          <mxGeometry x="770" y="470" width="50" height="120" as="geometry" />
        </mxCell>
        <mxCell id="pduw1BFFSuMTtjPy8Jkl-95" style="edgeStyle=orthogonalEdgeStyle;rounded=0;orthogonalLoop=1;jettySize=auto;html=1;entryX=0.5;entryY=0;entryDx=0;entryDy=0;fontSize=19;fontStyle=1" parent="1" source="pduw1BFFSuMTtjPy8Jkl-87" target="pduw1BFFSuMTtjPy8Jkl-88" edge="1">
          <mxGeometry relative="1" as="geometry" />
        </mxCell>
        <mxCell id="pduw1BFFSuMTtjPy8Jkl-96" style="edgeStyle=orthogonalEdgeStyle;rounded=0;orthogonalLoop=1;jettySize=auto;html=1;entryX=0.5;entryY=0;entryDx=0;entryDy=0;fontSize=19;fontStyle=1" parent="1" source="pduw1BFFSuMTtjPy8Jkl-87" target="pduw1BFFSuMTtjPy8Jkl-89" edge="1">
          <mxGeometry relative="1" as="geometry" />
        </mxCell>
        <mxCell id="pduw1BFFSuMTtjPy8Jkl-97" style="edgeStyle=orthogonalEdgeStyle;rounded=0;orthogonalLoop=1;jettySize=auto;html=1;fontSize=19;fontStyle=1" parent="1" source="pduw1BFFSuMTtjPy8Jkl-87" target="pduw1BFFSuMTtjPy8Jkl-90" edge="1">
          <mxGeometry relative="1" as="geometry" />
        </mxCell>
        <mxCell id="pduw1BFFSuMTtjPy8Jkl-98" style="edgeStyle=orthogonalEdgeStyle;rounded=0;orthogonalLoop=1;jettySize=auto;html=1;entryX=0.5;entryY=0;entryDx=0;entryDy=0;fontSize=19;fontStyle=1" parent="1" source="pduw1BFFSuMTtjPy8Jkl-87" target="pduw1BFFSuMTtjPy8Jkl-94" edge="1">
          <mxGeometry relative="1" as="geometry" />
        </mxCell>
        <mxCell id="pduw1BFFSuMTtjPy8Jkl-99" style="edgeStyle=orthogonalEdgeStyle;rounded=0;orthogonalLoop=1;jettySize=auto;html=1;entryX=0.5;entryY=0;entryDx=0;entryDy=0;fontSize=19;fontStyle=1" parent="1" source="pduw1BFFSuMTtjPy8Jkl-87" target="pduw1BFFSuMTtjPy8Jkl-91" edge="1">
          <mxGeometry relative="1" as="geometry" />
        </mxCell>
        <mxCell id="pduw1BFFSuMTtjPy8Jkl-87" value="点击导航-推荐" style="rounded=1;whiteSpace=wrap;html=1;fillColor=#1ba1e2;strokeColor=#006EAF;fontColor=#ffffff;fontSize=19;fontStyle=1" parent="1" vertex="1">
          <mxGeometry x="660" y="1040" width="120" height="60" as="geometry" />
        </mxCell>
        <mxCell id="pduw1BFFSuMTtjPy8Jkl-104" style="edgeStyle=orthogonalEdgeStyle;rounded=0;orthogonalLoop=1;jettySize=auto;html=1;entryX=0.5;entryY=0;entryDx=0;entryDy=0;fontSize=19;fontStyle=1" parent="1" source="pduw1BFFSuMTtjPy8Jkl-88" target="pduw1BFFSuMTtjPy8Jkl-100" edge="1">
          <mxGeometry relative="1" as="geometry" />
        </mxCell>
        <mxCell id="pduw1BFFSuMTtjPy8Jkl-88" value="轮播页面" style="rounded=1;whiteSpace=wrap;html=1;fillColor=#1ba1e2;strokeColor=#006EAF;fontColor=#ffffff;fontSize=19;fontStyle=1" parent="1" vertex="1">
          <mxGeometry x="200" y="1140" width="120" height="60" as="geometry" />
        </mxCell>
        <mxCell id="pduw1BFFSuMTtjPy8Jkl-106" style="edgeStyle=orthogonalEdgeStyle;rounded=0;orthogonalLoop=1;jettySize=auto;html=1;entryX=0.5;entryY=0;entryDx=0;entryDy=0;fontSize=19;fontStyle=1" parent="1" source="pduw1BFFSuMTtjPy8Jkl-89" target="pduw1BFFSuMTtjPy8Jkl-105" edge="1">
          <mxGeometry relative="1" as="geometry" />
        </mxCell>
        <mxCell id="pduw1BFFSuMTtjPy8Jkl-89" value="书籍" style="rounded=1;whiteSpace=wrap;html=1;fillColor=#1ba1e2;strokeColor=#006EAF;fontColor=#ffffff;fontSize=19;fontStyle=1" parent="1" vertex="1">
          <mxGeometry x="430" y="1140" width="120" height="60" as="geometry" />
        </mxCell>
        <mxCell id="pduw1BFFSuMTtjPy8Jkl-118" style="edgeStyle=orthogonalEdgeStyle;rounded=0;orthogonalLoop=1;jettySize=auto;html=1;entryX=0.5;entryY=0;entryDx=0;entryDy=0;fontSize=19;fontStyle=1" parent="1" source="pduw1BFFSuMTtjPy8Jkl-90" target="pduw1BFFSuMTtjPy8Jkl-111" edge="1">
          <mxGeometry relative="1" as="geometry" />
        </mxCell>
        <mxCell id="pduw1BFFSuMTtjPy8Jkl-90" value="优质课程" style="rounded=1;whiteSpace=wrap;html=1;fillColor=#1ba1e2;strokeColor=#006EAF;fontColor=#ffffff;fontSize=19;fontStyle=1" parent="1" vertex="1">
          <mxGeometry x="660" y="1140" width="120" height="60" as="geometry" />
        </mxCell>
        <mxCell id="pduw1BFFSuMTtjPy8Jkl-124" value="" style="edgeStyle=orthogonalEdgeStyle;rounded=0;orthogonalLoop=1;jettySize=auto;html=1;fontSize=19;fontStyle=1" parent="1" source="pduw1BFFSuMTtjPy8Jkl-91" target="pduw1BFFSuMTtjPy8Jkl-123" edge="1">
          <mxGeometry relative="1" as="geometry" />
        </mxCell>
        <mxCell id="pduw1BFFSuMTtjPy8Jkl-91" value="公众号" style="rounded=1;whiteSpace=wrap;html=1;fillColor=#1ba1e2;strokeColor=#006EAF;fontColor=#ffffff;fontSize=19;fontStyle=1" parent="1" vertex="1">
          <mxGeometry x="874" y="1150" width="120" height="60" as="geometry" />
        </mxCell>
        <mxCell id="pduw1BFFSuMTtjPy8Jkl-181" value="" style="edgeStyle=orthogonalEdgeStyle;rounded=0;orthogonalLoop=1;jettySize=auto;html=1;fontSize=19;fontStyle=1" parent="1" source="pduw1BFFSuMTtjPy8Jkl-94" target="pduw1BFFSuMTtjPy8Jkl-180" edge="1">
          <mxGeometry relative="1" as="geometry" />
        </mxCell>
        <mxCell id="pduw1BFFSuMTtjPy8Jkl-94" value="工具" style="rounded=1;whiteSpace=wrap;html=1;fillColor=#1ba1e2;strokeColor=#006EAF;fontColor=#ffffff;fontSize=19;fontStyle=1" parent="1" vertex="1">
          <mxGeometry x="1080" y="1150" width="120" height="60" as="geometry" />
        </mxCell>
        <mxCell id="pduw1BFFSuMTtjPy8Jkl-100" value="点击进行页面跳转" style="rounded=1;whiteSpace=wrap;html=1;fillColor=#1ba1e2;strokeColor=#006EAF;fontColor=#ffffff;fontSize=19;fontStyle=1" parent="1" vertex="1">
          <mxGeometry x="200" y="1250" width="120" height="60" as="geometry" />
        </mxCell>
        <mxCell id="pduw1BFFSuMTtjPy8Jkl-110" style="edgeStyle=orthogonalEdgeStyle;rounded=0;orthogonalLoop=1;jettySize=auto;html=1;entryX=0.5;entryY=0;entryDx=0;entryDy=0;fontSize=19;fontStyle=1" parent="1" source="pduw1BFFSuMTtjPy8Jkl-105" target="pduw1BFFSuMTtjPy8Jkl-107" edge="1">
          <mxGeometry relative="1" as="geometry" />
        </mxCell>
        <mxCell id="pduw1BFFSuMTtjPy8Jkl-105" value="页面爬取" style="rounded=1;whiteSpace=wrap;html=1;fillColor=#1ba1e2;strokeColor=#006EAF;fontColor=#ffffff;fontSize=19;fontStyle=1" parent="1" vertex="1">
          <mxGeometry x="430" y="1250" width="120" height="60" as="geometry" />
        </mxCell>
        <mxCell id="pduw1BFFSuMTtjPy8Jkl-122" value="" style="edgeStyle=orthogonalEdgeStyle;rounded=0;orthogonalLoop=1;jettySize=auto;html=1;fontSize=19;fontStyle=1" parent="1" source="pduw1BFFSuMTtjPy8Jkl-107" edge="1">
          <mxGeometry relative="1" as="geometry">
            <mxPoint x="490" y="1460" as="targetPoint" />
          </mxGeometry>
        </mxCell>
        <mxCell id="pduw1BFFSuMTtjPy8Jkl-107" value="推荐计算" style="rounded=1;whiteSpace=wrap;html=1;fillColor=#1ba1e2;strokeColor=#006EAF;fontColor=#ffffff;fontSize=19;fontStyle=1" parent="1" vertex="1">
          <mxGeometry x="430" y="1360" width="120" height="60" as="geometry" />
        </mxCell>
        <mxCell id="pduw1BFFSuMTtjPy8Jkl-119" style="edgeStyle=orthogonalEdgeStyle;rounded=0;orthogonalLoop=1;jettySize=auto;html=1;fontSize=19;fontStyle=1" parent="1" source="pduw1BFFSuMTtjPy8Jkl-111" target="pduw1BFFSuMTtjPy8Jkl-112" edge="1">
          <mxGeometry relative="1" as="geometry" />
        </mxCell>
        <mxCell id="pduw1BFFSuMTtjPy8Jkl-111" value="页面爬取" style="rounded=1;whiteSpace=wrap;html=1;fillColor=#1ba1e2;strokeColor=#006EAF;fontColor=#ffffff;fontSize=19;fontStyle=1" parent="1" vertex="1">
          <mxGeometry x="660" y="1250" width="120" height="60" as="geometry" />
        </mxCell>
        <mxCell id="pduw1BFFSuMTtjPy8Jkl-120" style="edgeStyle=orthogonalEdgeStyle;rounded=0;orthogonalLoop=1;jettySize=auto;html=1;entryX=0.5;entryY=0;entryDx=0;entryDy=0;fontSize=19;fontStyle=1" parent="1" source="pduw1BFFSuMTtjPy8Jkl-112" edge="1">
          <mxGeometry relative="1" as="geometry">
            <mxPoint x="720" y="1460" as="targetPoint" />
          </mxGeometry>
        </mxCell>
        <mxCell id="pduw1BFFSuMTtjPy8Jkl-112" value="综合统计" style="rounded=1;whiteSpace=wrap;html=1;fillColor=#1ba1e2;strokeColor=#006EAF;fontColor=#ffffff;fontSize=19;fontStyle=1" parent="1" vertex="1">
          <mxGeometry x="660" y="1350" width="120" height="60" as="geometry" />
        </mxCell>
        <mxCell id="pduw1BFFSuMTtjPy8Jkl-126" value="" style="edgeStyle=orthogonalEdgeStyle;rounded=0;orthogonalLoop=1;jettySize=auto;html=1;fontSize=19;fontStyle=1" parent="1" source="pduw1BFFSuMTtjPy8Jkl-123" target="pduw1BFFSuMTtjPy8Jkl-125" edge="1">
          <mxGeometry relative="1" as="geometry" />
        </mxCell>
        <mxCell id="pduw1BFFSuMTtjPy8Jkl-123" value="网页爬取" style="whiteSpace=wrap;html=1;rounded=1;fontSize=19;fontColor=#ffffff;strokeColor=#006EAF;fillColor=#1ba1e2;fontStyle=1" parent="1" vertex="1">
          <mxGeometry x="874" y="1260" width="120" height="60" as="geometry" />
        </mxCell>
        <mxCell id="pduw1BFFSuMTtjPy8Jkl-129" value="" style="edgeStyle=orthogonalEdgeStyle;rounded=0;orthogonalLoop=1;jettySize=auto;html=1;fontSize=19;fontStyle=1" parent="1" source="pduw1BFFSuMTtjPy8Jkl-125" target="pduw1BFFSuMTtjPy8Jkl-128" edge="1">
          <mxGeometry relative="1" as="geometry" />
        </mxCell>
        <mxCell id="pduw1BFFSuMTtjPy8Jkl-125" value="综合统计" style="whiteSpace=wrap;html=1;rounded=1;fontSize=19;fontColor=#ffffff;strokeColor=#006EAF;fillColor=#1ba1e2;fontStyle=1" parent="1" vertex="1">
          <mxGeometry x="874" y="1360" width="120" height="60" as="geometry" />
        </mxCell>
        <mxCell id="pduw1BFFSuMTtjPy8Jkl-132" value="" style="edgeStyle=orthogonalEdgeStyle;rounded=0;orthogonalLoop=1;jettySize=auto;html=1;fontSize=19;fontStyle=1" parent="1" source="pduw1BFFSuMTtjPy8Jkl-128" target="pduw1BFFSuMTtjPy8Jkl-131" edge="1">
          <mxGeometry relative="1" as="geometry" />
        </mxCell>
        <mxCell id="pduw1BFFSuMTtjPy8Jkl-128" value="图片获取&lt;br style=&quot;font-size: 19px;&quot;&gt;信息获取" style="whiteSpace=wrap;html=1;rounded=1;fontSize=19;fontColor=#ffffff;strokeColor=#006EAF;fillColor=#1ba1e2;fontStyle=1" parent="1" vertex="1">
          <mxGeometry x="874" y="1470" width="120" height="60" as="geometry" />
        </mxCell>
        <mxCell id="pduw1BFFSuMTtjPy8Jkl-134" value="" style="edgeStyle=orthogonalEdgeStyle;rounded=0;orthogonalLoop=1;jettySize=auto;html=1;fontSize=19;fontStyle=1" parent="1" source="pduw1BFFSuMTtjPy8Jkl-131" target="pduw1BFFSuMTtjPy8Jkl-133" edge="1">
          <mxGeometry relative="1" as="geometry" />
        </mxCell>
        <mxCell id="pduw1BFFSuMTtjPy8Jkl-131" value="信息存储" style="whiteSpace=wrap;html=1;rounded=1;fontSize=19;fontColor=#ffffff;strokeColor=#006EAF;fillColor=#1ba1e2;fontStyle=1" parent="1" vertex="1">
          <mxGeometry x="874" y="1580" width="120" height="60" as="geometry" />
        </mxCell>
        <mxCell id="pduw1BFFSuMTtjPy8Jkl-146" value="" style="edgeStyle=orthogonalEdgeStyle;rounded=0;orthogonalLoop=1;jettySize=auto;html=1;fontSize=19;fontStyle=1" parent="1" source="pduw1BFFSuMTtjPy8Jkl-133" target="pduw1BFFSuMTtjPy8Jkl-145" edge="1">
          <mxGeometry relative="1" as="geometry" />
        </mxCell>
        <mxCell id="pduw1BFFSuMTtjPy8Jkl-133" value="取出信息" style="rhombus;whiteSpace=wrap;html=1;rounded=1;fontSize=19;fontColor=#ffffff;strokeColor=#006EAF;fillColor=#1ba1e2;fontStyle=1" parent="1" vertex="1">
          <mxGeometry x="894" y="1690" width="80" height="80" as="geometry" />
        </mxCell>
        <mxCell id="pduw1BFFSuMTtjPy8Jkl-140" value="" style="endArrow=classic;html=1;fontSize=19;entryX=1;entryY=0.5;entryDx=0;entryDy=0;fontStyle=1" parent="1" target="pduw1BFFSuMTtjPy8Jkl-128" edge="1">
          <mxGeometry relative="1" as="geometry">
            <mxPoint x="974" y="1730" as="sourcePoint" />
            <mxPoint x="994" y="1390" as="targetPoint" />
            <Array as="points">
              <mxPoint x="1034" y="1730" />
              <mxPoint x="1034" y="1500" />
            </Array>
          </mxGeometry>
        </mxCell>
        <mxCell id="pduw1BFFSuMTtjPy8Jkl-141" value="Label" style="edgeLabel;resizable=0;html=1;align=center;verticalAlign=middle;fontSize=19;fontStyle=1" parent="pduw1BFFSuMTtjPy8Jkl-140" connectable="0" vertex="1">
          <mxGeometry relative="1" as="geometry" />
        </mxCell>
        <mxCell id="pduw1BFFSuMTtjPy8Jkl-142" value="获取失败" style="edgeLabel;html=1;align=center;verticalAlign=middle;resizable=0;points=[];fontSize=19;fontStyle=1" parent="pduw1BFFSuMTtjPy8Jkl-140" vertex="1" connectable="0">
          <mxGeometry x="-0.0235" y="-6" relative="1" as="geometry">
            <mxPoint as="offset" />
          </mxGeometry>
        </mxCell>
        <mxCell id="pduw1BFFSuMTtjPy8Jkl-145" value="页面展示" style="whiteSpace=wrap;html=1;rounded=1;fontSize=19;fontColor=#ffffff;strokeColor=#006EAF;fillColor=#1ba1e2;fontStyle=1" parent="1" vertex="1">
          <mxGeometry x="874" y="1860" width="120" height="60" as="geometry" />
        </mxCell>
        <mxCell id="pduw1BFFSuMTtjPy8Jkl-160" value="" style="edgeStyle=orthogonalEdgeStyle;rounded=0;orthogonalLoop=1;jettySize=auto;html=1;fontSize=19;fontStyle=1" parent="1" source="pduw1BFFSuMTtjPy8Jkl-161" target="pduw1BFFSuMTtjPy8Jkl-163" edge="1">
          <mxGeometry relative="1" as="geometry" />
        </mxCell>
        <mxCell id="pduw1BFFSuMTtjPy8Jkl-161" value="人数统计" style="whiteSpace=wrap;html=1;rounded=1;fontSize=19;fontColor=#ffffff;strokeColor=#006EAF;fillColor=#1ba1e2;fontStyle=1" parent="1" vertex="1">
          <mxGeometry x="660" y="1460" width="120" height="60" as="geometry" />
        </mxCell>
        <mxCell id="pduw1BFFSuMTtjPy8Jkl-162" value="" style="edgeStyle=orthogonalEdgeStyle;rounded=0;orthogonalLoop=1;jettySize=auto;html=1;fontSize=19;fontStyle=1" parent="1" source="pduw1BFFSuMTtjPy8Jkl-163" target="pduw1BFFSuMTtjPy8Jkl-165" edge="1">
          <mxGeometry relative="1" as="geometry" />
        </mxCell>
        <mxCell id="pduw1BFFSuMTtjPy8Jkl-163" value="信息存储" style="whiteSpace=wrap;html=1;rounded=1;fontSize=19;fontColor=#ffffff;strokeColor=#006EAF;fillColor=#1ba1e2;fontStyle=1" parent="1" vertex="1">
          <mxGeometry x="660" y="1570" width="120" height="60" as="geometry" />
        </mxCell>
        <mxCell id="pduw1BFFSuMTtjPy8Jkl-164" value="" style="edgeStyle=orthogonalEdgeStyle;rounded=0;orthogonalLoop=1;jettySize=auto;html=1;fontSize=19;fontStyle=1" parent="1" source="pduw1BFFSuMTtjPy8Jkl-165" target="pduw1BFFSuMTtjPy8Jkl-169" edge="1">
          <mxGeometry relative="1" as="geometry" />
        </mxCell>
        <mxCell id="pduw1BFFSuMTtjPy8Jkl-165" value="取出信息" style="rhombus;whiteSpace=wrap;html=1;rounded=1;fontSize=19;fontColor=#ffffff;strokeColor=#006EAF;fillColor=#1ba1e2;fontStyle=1" parent="1" vertex="1">
          <mxGeometry x="680" y="1680" width="80" height="80" as="geometry" />
        </mxCell>
        <mxCell id="pduw1BFFSuMTtjPy8Jkl-166" value="" style="endArrow=classic;html=1;fontSize=19;entryX=1;entryY=0.5;entryDx=0;entryDy=0;fontStyle=1" parent="1" target="pduw1BFFSuMTtjPy8Jkl-161" edge="1">
          <mxGeometry relative="1" as="geometry">
            <mxPoint x="760" y="1720" as="sourcePoint" />
            <mxPoint x="780" y="1380" as="targetPoint" />
            <Array as="points">
              <mxPoint x="820" y="1720" />
              <mxPoint x="820" y="1490" />
            </Array>
          </mxGeometry>
        </mxCell>
        <mxCell id="pduw1BFFSuMTtjPy8Jkl-167" value="Label" style="edgeLabel;resizable=0;html=1;align=center;verticalAlign=middle;fontSize=19;fontStyle=1" parent="pduw1BFFSuMTtjPy8Jkl-166" connectable="0" vertex="1">
          <mxGeometry relative="1" as="geometry" />
        </mxCell>
        <mxCell id="pduw1BFFSuMTtjPy8Jkl-168" value="获取失败" style="edgeLabel;html=1;align=center;verticalAlign=middle;resizable=0;points=[];fontSize=19;fontStyle=1" parent="pduw1BFFSuMTtjPy8Jkl-166" vertex="1" connectable="0">
          <mxGeometry x="-0.0235" y="-6" relative="1" as="geometry">
            <mxPoint x="4" y="1" as="offset" />
          </mxGeometry>
        </mxCell>
        <mxCell id="pduw1BFFSuMTtjPy8Jkl-169" value="页面展示" style="whiteSpace=wrap;html=1;rounded=1;fontSize=19;fontColor=#ffffff;strokeColor=#006EAF;fillColor=#1ba1e2;fontStyle=1" parent="1" vertex="1">
          <mxGeometry x="660" y="1800" width="120" height="60" as="geometry" />
        </mxCell>
        <mxCell id="pduw1BFFSuMTtjPy8Jkl-170" value="" style="edgeStyle=orthogonalEdgeStyle;rounded=0;orthogonalLoop=1;jettySize=auto;html=1;fontSize=19;fontStyle=1" parent="1" source="pduw1BFFSuMTtjPy8Jkl-171" target="pduw1BFFSuMTtjPy8Jkl-173" edge="1">
          <mxGeometry relative="1" as="geometry" />
        </mxCell>
        <mxCell id="pduw1BFFSuMTtjPy8Jkl-171" value="推荐结果得出" style="whiteSpace=wrap;html=1;rounded=1;fontSize=19;fontColor=#ffffff;strokeColor=#006EAF;fillColor=#1ba1e2;fontStyle=1" parent="1" vertex="1">
          <mxGeometry x="430" y="1460" width="120" height="60" as="geometry" />
        </mxCell>
        <mxCell id="pduw1BFFSuMTtjPy8Jkl-172" value="" style="edgeStyle=orthogonalEdgeStyle;rounded=0;orthogonalLoop=1;jettySize=auto;html=1;fontSize=19;fontStyle=1" parent="1" source="pduw1BFFSuMTtjPy8Jkl-173" target="pduw1BFFSuMTtjPy8Jkl-175" edge="1">
          <mxGeometry relative="1" as="geometry" />
        </mxCell>
        <mxCell id="pduw1BFFSuMTtjPy8Jkl-173" value="信息存储" style="whiteSpace=wrap;html=1;rounded=1;fontSize=19;fontColor=#ffffff;strokeColor=#006EAF;fillColor=#1ba1e2;fontStyle=1" parent="1" vertex="1">
          <mxGeometry x="430" y="1570" width="120" height="60" as="geometry" />
        </mxCell>
        <mxCell id="pduw1BFFSuMTtjPy8Jkl-174" value="" style="edgeStyle=orthogonalEdgeStyle;rounded=0;orthogonalLoop=1;jettySize=auto;html=1;fontSize=19;fontStyle=1" parent="1" source="pduw1BFFSuMTtjPy8Jkl-175" target="pduw1BFFSuMTtjPy8Jkl-179" edge="1">
          <mxGeometry relative="1" as="geometry" />
        </mxCell>
        <mxCell id="pduw1BFFSuMTtjPy8Jkl-175" value="取出信息" style="rhombus;whiteSpace=wrap;html=1;rounded=1;fontSize=19;fontColor=#ffffff;strokeColor=#006EAF;fillColor=#1ba1e2;fontStyle=1" parent="1" vertex="1">
          <mxGeometry x="450" y="1680" width="80" height="80" as="geometry" />
        </mxCell>
        <mxCell id="pduw1BFFSuMTtjPy8Jkl-176" value="" style="endArrow=classic;html=1;fontSize=19;entryX=1;entryY=0.5;entryDx=0;entryDy=0;fontStyle=1" parent="1" target="pduw1BFFSuMTtjPy8Jkl-171" edge="1">
          <mxGeometry relative="1" as="geometry">
            <mxPoint x="530" y="1720" as="sourcePoint" />
            <mxPoint x="550" y="1380" as="targetPoint" />
            <Array as="points">
              <mxPoint x="590" y="1720" />
              <mxPoint x="590" y="1490" />
            </Array>
          </mxGeometry>
        </mxCell>
        <mxCell id="pduw1BFFSuMTtjPy8Jkl-177" value="Label" style="edgeLabel;resizable=0;html=1;align=center;verticalAlign=middle;fontSize=19;fontStyle=1" parent="pduw1BFFSuMTtjPy8Jkl-176" connectable="0" vertex="1">
          <mxGeometry relative="1" as="geometry" />
        </mxCell>
        <mxCell id="pduw1BFFSuMTtjPy8Jkl-178" value="获取失败" style="edgeLabel;html=1;align=center;verticalAlign=middle;resizable=0;points=[];fontSize=19;fontStyle=1" parent="pduw1BFFSuMTtjPy8Jkl-176" vertex="1" connectable="0">
          <mxGeometry x="-0.0235" y="-6" relative="1" as="geometry">
            <mxPoint x="-6" y="1" as="offset" />
          </mxGeometry>
        </mxCell>
        <mxCell id="pduw1BFFSuMTtjPy8Jkl-179" value="页面展示" style="whiteSpace=wrap;html=1;rounded=1;fontSize=19;fontColor=#ffffff;strokeColor=#006EAF;fillColor=#1ba1e2;fontStyle=1" parent="1" vertex="1">
          <mxGeometry x="430" y="1800" width="120" height="60" as="geometry" />
        </mxCell>
        <mxCell id="pduw1BFFSuMTtjPy8Jkl-185" value="" style="edgeStyle=orthogonalEdgeStyle;rounded=0;orthogonalLoop=1;jettySize=auto;html=1;fontSize=19;fontStyle=1" parent="1" source="pduw1BFFSuMTtjPy8Jkl-180" target="pduw1BFFSuMTtjPy8Jkl-184" edge="1">
          <mxGeometry relative="1" as="geometry" />
        </mxCell>
        <mxCell id="pduw1BFFSuMTtjPy8Jkl-180" value="工具调研" style="whiteSpace=wrap;html=1;rounded=1;fontSize=19;fontColor=#ffffff;strokeColor=#006EAF;fillColor=#1ba1e2;fontStyle=1" parent="1" vertex="1">
          <mxGeometry x="1080" y="1260" width="120" height="60" as="geometry" />
        </mxCell>
        <mxCell id="pduw1BFFSuMTtjPy8Jkl-187" value="" style="edgeStyle=orthogonalEdgeStyle;rounded=0;orthogonalLoop=1;jettySize=auto;html=1;fontSize=19;fontStyle=1" parent="1" source="pduw1BFFSuMTtjPy8Jkl-184" target="pduw1BFFSuMTtjPy8Jkl-186" edge="1">
          <mxGeometry relative="1" as="geometry" />
        </mxCell>
        <mxCell id="pduw1BFFSuMTtjPy8Jkl-184" value="工具信息获取" style="whiteSpace=wrap;html=1;rounded=1;fontSize=19;fontColor=#ffffff;strokeColor=#006EAF;fillColor=#1ba1e2;fontStyle=1" parent="1" vertex="1">
          <mxGeometry x="1080" y="1360" width="120" height="60" as="geometry" />
        </mxCell>
        <mxCell id="pduw1BFFSuMTtjPy8Jkl-189" value="" style="edgeStyle=orthogonalEdgeStyle;rounded=0;orthogonalLoop=1;jettySize=auto;html=1;fontSize=19;fontStyle=1" parent="1" source="pduw1BFFSuMTtjPy8Jkl-186" target="pduw1BFFSuMTtjPy8Jkl-188" edge="1">
          <mxGeometry relative="1" as="geometry" />
        </mxCell>
        <mxCell id="pduw1BFFSuMTtjPy8Jkl-186" value="页面展示" style="whiteSpace=wrap;html=1;rounded=1;fontSize=19;fontColor=#ffffff;strokeColor=#006EAF;fillColor=#1ba1e2;fontStyle=1" parent="1" vertex="1">
          <mxGeometry x="1080" y="1470" width="120" height="60" as="geometry" />
        </mxCell>
        <mxCell id="pduw1BFFSuMTtjPy8Jkl-193" value="" style="edgeStyle=orthogonalEdgeStyle;rounded=0;orthogonalLoop=1;jettySize=auto;html=1;fontSize=19;fontStyle=1" parent="1" source="pduw1BFFSuMTtjPy8Jkl-188" target="pduw1BFFSuMTtjPy8Jkl-192" edge="1">
          <mxGeometry relative="1" as="geometry" />
        </mxCell>
        <mxCell id="pduw1BFFSuMTtjPy8Jkl-188" value="点击调转百度网盘" style="whiteSpace=wrap;html=1;rounded=1;fontSize=19;fontColor=#ffffff;strokeColor=#006EAF;fillColor=#1ba1e2;fontStyle=1" parent="1" vertex="1">
          <mxGeometry x="1080" y="1560" width="120" height="60" as="geometry" />
        </mxCell>
        <mxCell id="pduw1BFFSuMTtjPy8Jkl-197" value="" style="edgeStyle=orthogonalEdgeStyle;rounded=0;orthogonalLoop=1;jettySize=auto;html=1;fontSize=19;startArrow=none;fontStyle=1" parent="1" source="pduw1BFFSuMTtjPy8Jkl-198" target="pduw1BFFSuMTtjPy8Jkl-196" edge="1">
          <mxGeometry relative="1" as="geometry" />
        </mxCell>
        <mxCell id="pduw1BFFSuMTtjPy8Jkl-202" value="" style="edgeStyle=orthogonalEdgeStyle;rounded=0;orthogonalLoop=1;jettySize=auto;html=1;fontSize=19;fontStyle=1" parent="1" source="pduw1BFFSuMTtjPy8Jkl-192" target="pduw1BFFSuMTtjPy8Jkl-201" edge="1">
          <mxGeometry relative="1" as="geometry" />
        </mxCell>
        <mxCell id="pduw1BFFSuMTtjPy8Jkl-192" value="权限设置" style="rhombus;whiteSpace=wrap;html=1;rounded=1;fontSize=19;fontColor=#ffffff;strokeColor=#006EAF;fillColor=#1ba1e2;fontStyle=1" parent="1" vertex="1">
          <mxGeometry x="1100" y="1690" width="80" height="80" as="geometry" />
        </mxCell>
        <mxCell id="pduw1BFFSuMTtjPy8Jkl-196" value="提示不能跳转" style="whiteSpace=wrap;html=1;rounded=1;fontSize=19;fontColor=#ffffff;strokeColor=#006EAF;fillColor=#1ba1e2;fontStyle=1" parent="1" vertex="1">
          <mxGeometry x="1290" y="1700" width="120" height="60" as="geometry" />
        </mxCell>
        <mxCell id="pduw1BFFSuMTtjPy8Jkl-198" value="&lt;font style=&quot;font-size: 19px;&quot;&gt;权限不允许&lt;/font&gt;" style="text;html=1;strokeColor=none;fillColor=none;align=center;verticalAlign=middle;whiteSpace=wrap;rounded=0;fontSize=19;fontStyle=1" parent="1" vertex="1">
          <mxGeometry x="1190" y="1720" width="80" height="20" as="geometry" />
        </mxCell>
        <mxCell id="pduw1BFFSuMTtjPy8Jkl-199" value="" style="edgeStyle=orthogonalEdgeStyle;rounded=0;orthogonalLoop=1;jettySize=auto;html=1;fontSize=19;endArrow=none;fontStyle=1" parent="1" source="pduw1BFFSuMTtjPy8Jkl-192" target="pduw1BFFSuMTtjPy8Jkl-198" edge="1">
          <mxGeometry relative="1" as="geometry">
            <mxPoint x="1180" y="1730" as="sourcePoint" />
            <mxPoint x="1240" y="1730" as="targetPoint" />
          </mxGeometry>
        </mxCell>
        <mxCell id="pduw1BFFSuMTtjPy8Jkl-204" value="" style="edgeStyle=orthogonalEdgeStyle;rounded=0;orthogonalLoop=1;jettySize=auto;html=1;fontSize=19;fontStyle=1" parent="1" source="pduw1BFFSuMTtjPy8Jkl-201" target="pduw1BFFSuMTtjPy8Jkl-203" edge="1">
          <mxGeometry relative="1" as="geometry" />
        </mxCell>
        <mxCell id="pduw1BFFSuMTtjPy8Jkl-201" value="链接保存" style="whiteSpace=wrap;html=1;rounded=1;fontSize=19;fontColor=#ffffff;strokeColor=#006EAF;fillColor=#1ba1e2;fontStyle=1" parent="1" vertex="1">
          <mxGeometry x="1080" y="1820" width="120" height="60" as="geometry" />
        </mxCell>
        <mxCell id="pduw1BFFSuMTtjPy8Jkl-203" value="下载工具" style="whiteSpace=wrap;html=1;rounded=1;fontSize=19;fontColor=#ffffff;strokeColor=#006EAF;fillColor=#1ba1e2;fontStyle=1" parent="1" vertex="1">
          <mxGeometry x="1080" y="1930" width="120" height="60" as="geometry" />
        </mxCell>
        <mxCell id="EJp7cVd_BcKbrbgZlSUE-5" value="" style="edgeStyle=orthogonalEdgeStyle;rounded=0;orthogonalLoop=1;jettySize=auto;html=1;" edge="1" parent="1" source="EJp7cVd_BcKbrbgZlSUE-1" target="EJp7cVd_BcKbrbgZlSUE-4">
          <mxGeometry relative="1" as="geometry" />
        </mxCell>
        <mxCell id="EJp7cVd_BcKbrbgZlSUE-1" value="用户登录" style="rounded=1;whiteSpace=wrap;html=1;fillColor=#1ba1e2;strokeColor=#006EAF;fontColor=#ffffff;fontSize=19;fontStyle=1" vertex="1" parent="1">
          <mxGeometry x="360" y="2300" width="120" height="60" as="geometry" />
        </mxCell>
        <mxCell id="EJp7cVd_BcKbrbgZlSUE-7" value="" style="edgeStyle=orthogonalEdgeStyle;rounded=0;orthogonalLoop=1;jettySize=auto;html=1;" edge="1" parent="1" source="EJp7cVd_BcKbrbgZlSUE-4" target="EJp7cVd_BcKbrbgZlSUE-6">
          <mxGeometry relative="1" as="geometry" />
        </mxCell>
        <mxCell id="EJp7cVd_BcKbrbgZlSUE-15" value="" style="edgeStyle=orthogonalEdgeStyle;rounded=0;orthogonalLoop=1;jettySize=auto;html=1;" edge="1" parent="1" source="EJp7cVd_BcKbrbgZlSUE-4" target="EJp7cVd_BcKbrbgZlSUE-14">
          <mxGeometry relative="1" as="geometry" />
        </mxCell>
        <mxCell id="EJp7cVd_BcKbrbgZlSUE-4" value="检测账户" style="rhombus;whiteSpace=wrap;html=1;rounded=1;fontSize=19;fontColor=#ffffff;fontStyle=1;strokeColor=#006EAF;fillColor=#1ba1e2;" vertex="1" parent="1">
          <mxGeometry x="335" y="2390" width="170" height="100" as="geometry" />
        </mxCell>
        <mxCell id="EJp7cVd_BcKbrbgZlSUE-9" value="" style="edgeStyle=orthogonalEdgeStyle;rounded=0;orthogonalLoop=1;jettySize=auto;html=1;" edge="1" parent="1" source="EJp7cVd_BcKbrbgZlSUE-6" target="EJp7cVd_BcKbrbgZlSUE-8">
          <mxGeometry relative="1" as="geometry" />
        </mxCell>
        <mxCell id="EJp7cVd_BcKbrbgZlSUE-6" value="注册" style="whiteSpace=wrap;html=1;rounded=1;fontSize=19;fontColor=#ffffff;fontStyle=1;strokeColor=#006EAF;fillColor=#1ba1e2;" vertex="1" parent="1">
          <mxGeometry x="550" y="2410" width="120" height="60" as="geometry" />
        </mxCell>
        <mxCell id="EJp7cVd_BcKbrbgZlSUE-11" value="" style="edgeStyle=orthogonalEdgeStyle;rounded=0;orthogonalLoop=1;jettySize=auto;html=1;" edge="1" parent="1" source="EJp7cVd_BcKbrbgZlSUE-8" target="EJp7cVd_BcKbrbgZlSUE-10">
          <mxGeometry relative="1" as="geometry" />
        </mxCell>
        <mxCell id="EJp7cVd_BcKbrbgZlSUE-8" value="输入邮箱" style="whiteSpace=wrap;html=1;rounded=1;fontSize=19;fontColor=#ffffff;fontStyle=1;strokeColor=#006EAF;fillColor=#1ba1e2;" vertex="1" parent="1">
          <mxGeometry x="705" y="2410" width="120" height="60" as="geometry" />
        </mxCell>
        <mxCell id="EJp7cVd_BcKbrbgZlSUE-13" value="" style="edgeStyle=orthogonalEdgeStyle;rounded=0;orthogonalLoop=1;jettySize=auto;html=1;" edge="1" parent="1" source="EJp7cVd_BcKbrbgZlSUE-10" target="EJp7cVd_BcKbrbgZlSUE-12">
          <mxGeometry relative="1" as="geometry" />
        </mxCell>
        <mxCell id="EJp7cVd_BcKbrbgZlSUE-10" value="获取验证码" style="whiteSpace=wrap;html=1;rounded=1;fontSize=19;fontColor=#ffffff;fontStyle=1;strokeColor=#006EAF;fillColor=#1ba1e2;" vertex="1" parent="1">
          <mxGeometry x="880" y="2410" width="120" height="60" as="geometry" />
        </mxCell>
        <mxCell id="EJp7cVd_BcKbrbgZlSUE-12" value="登录" style="whiteSpace=wrap;html=1;rounded=1;fontSize=19;fontColor=#ffffff;fontStyle=1;strokeColor=#006EAF;fillColor=#1ba1e2;" vertex="1" parent="1">
          <mxGeometry x="1030" y="2410" width="120" height="60" as="geometry" />
        </mxCell>
        <mxCell id="EJp7cVd_BcKbrbgZlSUE-17" value="" style="edgeStyle=orthogonalEdgeStyle;rounded=0;orthogonalLoop=1;jettySize=auto;html=1;" edge="1" parent="1" source="EJp7cVd_BcKbrbgZlSUE-14" target="EJp7cVd_BcKbrbgZlSUE-16">
          <mxGeometry relative="1" as="geometry" />
        </mxCell>
        <mxCell id="EJp7cVd_BcKbrbgZlSUE-14" value="登录" style="whiteSpace=wrap;html=1;rounded=1;fontSize=19;fontColor=#ffffff;fontStyle=1;strokeColor=#006EAF;fillColor=#1ba1e2;" vertex="1" parent="1">
          <mxGeometry x="360" y="2530" width="120" height="60" as="geometry" />
        </mxCell>
        <mxCell id="EJp7cVd_BcKbrbgZlSUE-19" value="" style="edgeStyle=orthogonalEdgeStyle;rounded=0;orthogonalLoop=1;jettySize=auto;html=1;" edge="1" parent="1" source="EJp7cVd_BcKbrbgZlSUE-16" target="EJp7cVd_BcKbrbgZlSUE-18">
          <mxGeometry relative="1" as="geometry" />
        </mxCell>
        <mxCell id="EJp7cVd_BcKbrbgZlSUE-29" value="" style="edgeStyle=orthogonalEdgeStyle;rounded=0;orthogonalLoop=1;jettySize=auto;html=1;" edge="1" parent="1" source="EJp7cVd_BcKbrbgZlSUE-16" target="EJp7cVd_BcKbrbgZlSUE-28">
          <mxGeometry relative="1" as="geometry" />
        </mxCell>
        <mxCell id="EJp7cVd_BcKbrbgZlSUE-16" value="选择登录方式" style="rhombus;whiteSpace=wrap;html=1;rounded=1;fontSize=19;fontColor=#ffffff;fontStyle=1;strokeColor=#006EAF;fillColor=#1ba1e2;" vertex="1" parent="1">
          <mxGeometry x="335" y="2650" width="170" height="90" as="geometry" />
        </mxCell>
        <mxCell id="EJp7cVd_BcKbrbgZlSUE-21" value="" style="edgeStyle=orthogonalEdgeStyle;rounded=0;orthogonalLoop=1;jettySize=auto;html=1;" edge="1" parent="1" source="EJp7cVd_BcKbrbgZlSUE-18" target="EJp7cVd_BcKbrbgZlSUE-20">
          <mxGeometry relative="1" as="geometry" />
        </mxCell>
        <mxCell id="EJp7cVd_BcKbrbgZlSUE-18" value="免密登录" style="whiteSpace=wrap;html=1;rounded=1;fontSize=19;fontColor=#ffffff;fontStyle=1;strokeColor=#006EAF;fillColor=#1ba1e2;" vertex="1" parent="1">
          <mxGeometry x="550" y="2665" width="120" height="60" as="geometry" />
        </mxCell>
        <mxCell id="EJp7cVd_BcKbrbgZlSUE-23" value="" style="edgeStyle=orthogonalEdgeStyle;rounded=0;orthogonalLoop=1;jettySize=auto;html=1;" edge="1" parent="1" source="EJp7cVd_BcKbrbgZlSUE-20" target="EJp7cVd_BcKbrbgZlSUE-22">
          <mxGeometry relative="1" as="geometry" />
        </mxCell>
        <mxCell id="EJp7cVd_BcKbrbgZlSUE-20" value="输入邮箱" style="whiteSpace=wrap;html=1;rounded=1;fontSize=19;fontColor=#ffffff;fontStyle=1;strokeColor=#006EAF;fillColor=#1ba1e2;" vertex="1" parent="1">
          <mxGeometry x="710" y="2665" width="120" height="60" as="geometry" />
        </mxCell>
        <mxCell id="EJp7cVd_BcKbrbgZlSUE-25" value="" style="edgeStyle=orthogonalEdgeStyle;rounded=0;orthogonalLoop=1;jettySize=auto;html=1;" edge="1" parent="1" source="EJp7cVd_BcKbrbgZlSUE-22" target="EJp7cVd_BcKbrbgZlSUE-24">
          <mxGeometry relative="1" as="geometry" />
        </mxCell>
        <mxCell id="EJp7cVd_BcKbrbgZlSUE-22" value="邮箱验证码" style="whiteSpace=wrap;html=1;rounded=1;fontSize=19;fontColor=#ffffff;fontStyle=1;strokeColor=#006EAF;fillColor=#1ba1e2;" vertex="1" parent="1">
          <mxGeometry x="874" y="2665" width="120" height="60" as="geometry" />
        </mxCell>
        <mxCell id="EJp7cVd_BcKbrbgZlSUE-27" value="" style="edgeStyle=orthogonalEdgeStyle;rounded=0;orthogonalLoop=1;jettySize=auto;html=1;" edge="1" parent="1" source="EJp7cVd_BcKbrbgZlSUE-24" target="EJp7cVd_BcKbrbgZlSUE-26">
          <mxGeometry relative="1" as="geometry" />
        </mxCell>
        <mxCell id="EJp7cVd_BcKbrbgZlSUE-24" value="邮箱绑定" style="whiteSpace=wrap;html=1;rounded=1;fontSize=19;fontColor=#ffffff;fontStyle=1;strokeColor=#006EAF;fillColor=#1ba1e2;" vertex="1" parent="1">
          <mxGeometry x="1030" y="2665" width="120" height="60" as="geometry" />
        </mxCell>
        <mxCell id="EJp7cVd_BcKbrbgZlSUE-26" value="登录成功" style="whiteSpace=wrap;html=1;rounded=1;fontSize=19;fontColor=#ffffff;fontStyle=1;strokeColor=#006EAF;fillColor=#1ba1e2;" vertex="1" parent="1">
          <mxGeometry x="1190" y="2665" width="120" height="60" as="geometry" />
        </mxCell>
        <mxCell id="EJp7cVd_BcKbrbgZlSUE-33" value="" style="edgeStyle=orthogonalEdgeStyle;rounded=0;orthogonalLoop=1;jettySize=auto;html=1;" edge="1" parent="1" source="EJp7cVd_BcKbrbgZlSUE-28" target="EJp7cVd_BcKbrbgZlSUE-32">
          <mxGeometry relative="1" as="geometry" />
        </mxCell>
        <mxCell id="EJp7cVd_BcKbrbgZlSUE-28" value="账号密码输入" style="whiteSpace=wrap;html=1;rounded=1;fontSize=19;fontColor=#ffffff;fontStyle=1;strokeColor=#006EAF;fillColor=#1ba1e2;" vertex="1" parent="1">
          <mxGeometry x="360" y="2790" width="120" height="60" as="geometry" />
        </mxCell>
        <mxCell id="EJp7cVd_BcKbrbgZlSUE-35" value="" style="edgeStyle=orthogonalEdgeStyle;rounded=0;orthogonalLoop=1;jettySize=auto;html=1;" edge="1" parent="1" source="EJp7cVd_BcKbrbgZlSUE-32" target="EJp7cVd_BcKbrbgZlSUE-34">
          <mxGeometry relative="1" as="geometry" />
        </mxCell>
        <mxCell id="EJp7cVd_BcKbrbgZlSUE-38" style="edgeStyle=orthogonalEdgeStyle;rounded=0;orthogonalLoop=1;jettySize=auto;html=1;entryX=0;entryY=0.5;entryDx=0;entryDy=0;" edge="1" parent="1" source="EJp7cVd_BcKbrbgZlSUE-32" target="EJp7cVd_BcKbrbgZlSUE-28">
          <mxGeometry relative="1" as="geometry">
            <mxPoint x="310" y="2930" as="targetPoint" />
            <Array as="points">
              <mxPoint x="300" y="2940" />
              <mxPoint x="300" y="2820" />
            </Array>
          </mxGeometry>
        </mxCell>
        <mxCell id="EJp7cVd_BcKbrbgZlSUE-32" value="&lt;span&gt;用户信息检测&lt;/span&gt;" style="rhombus;whiteSpace=wrap;html=1;rounded=1;fontSize=19;fontColor=#ffffff;fontStyle=1;strokeColor=#006EAF;fillColor=#1ba1e2;" vertex="1" parent="1">
          <mxGeometry x="340" y="2890" width="160" height="100" as="geometry" />
        </mxCell>
        <mxCell id="EJp7cVd_BcKbrbgZlSUE-37" value="" style="edgeStyle=orthogonalEdgeStyle;rounded=0;orthogonalLoop=1;jettySize=auto;html=1;" edge="1" parent="1" source="EJp7cVd_BcKbrbgZlSUE-34" target="EJp7cVd_BcKbrbgZlSUE-36">
          <mxGeometry relative="1" as="geometry" />
        </mxCell>
        <mxCell id="EJp7cVd_BcKbrbgZlSUE-34" value="登录成功" style="whiteSpace=wrap;html=1;rounded=1;fontSize=19;fontColor=#ffffff;fontStyle=1;strokeColor=#006EAF;fillColor=#1ba1e2;" vertex="1" parent="1">
          <mxGeometry x="360" y="3050" width="120" height="60" as="geometry" />
        </mxCell>
        <mxCell id="EJp7cVd_BcKbrbgZlSUE-36" value="进入主页面" style="whiteSpace=wrap;html=1;rounded=1;fontSize=19;fontColor=#ffffff;fontStyle=1;strokeColor=#006EAF;fillColor=#1ba1e2;" vertex="1" parent="1">
          <mxGeometry x="360" y="3150" width="120" height="60" as="geometry" />
        </mxCell>
        <mxCell id="EJp7cVd_BcKbrbgZlSUE-39" value="选择免密登录" style="text;html=1;strokeColor=none;fillColor=none;align=center;verticalAlign=middle;whiteSpace=wrap;rounded=0;" vertex="1" parent="1">
          <mxGeometry x="500" y="2670" width="40" height="20" as="geometry" />
        </mxCell>
        <mxCell id="EJp7cVd_BcKbrbgZlSUE-40" value="密码登录" style="text;html=1;strokeColor=none;fillColor=none;align=center;verticalAlign=middle;whiteSpace=wrap;rounded=0;" vertex="1" parent="1">
          <mxGeometry x="420" y="2750" width="60" height="20" as="geometry" />
        </mxCell>
        <mxCell id="EJp7cVd_BcKbrbgZlSUE-43" value="验证通过" style="text;html=1;strokeColor=none;fillColor=none;align=center;verticalAlign=middle;whiteSpace=wrap;rounded=0;" vertex="1" parent="1">
          <mxGeometry x="420" y="3010" width="80" height="20" as="geometry" />
        </mxCell>
        <mxCell id="EJp7cVd_BcKbrbgZlSUE-44" value="验证失败" style="text;html=1;strokeColor=none;fillColor=none;align=center;verticalAlign=middle;whiteSpace=wrap;rounded=0;" vertex="1" parent="1">
          <mxGeometry x="300" y="2870" width="70" height="20" as="geometry" />
        </mxCell>
        <mxCell id="EJp7cVd_BcKbrbgZlSUE-48" value="无账号" style="text;html=1;strokeColor=none;fillColor=none;align=center;verticalAlign=middle;whiteSpace=wrap;rounded=0;" vertex="1" parent="1">
          <mxGeometry x="500" y="2410" width="60" height="20" as="geometry" />
        </mxCell>
        <mxCell id="EJp7cVd_BcKbrbgZlSUE-49" value="有账号" style="text;html=1;strokeColor=none;fillColor=none;align=center;verticalAlign=middle;whiteSpace=wrap;rounded=0;" vertex="1" parent="1">
          <mxGeometry x="430" y="2500" width="40" height="20" as="geometry" />
        </mxCell>
        <mxCell id="EJp7cVd_BcKbrbgZlSUE-53" value="" style="edgeStyle=orthogonalEdgeStyle;rounded=0;orthogonalLoop=1;jettySize=auto;html=1;" edge="1" parent="1" source="EJp7cVd_BcKbrbgZlSUE-51" target="EJp7cVd_BcKbrbgZlSUE-52">
          <mxGeometry relative="1" as="geometry" />
        </mxCell>
        <mxCell id="EJp7cVd_BcKbrbgZlSUE-51" value="进入主页面" style="whiteSpace=wrap;html=1;rounded=1;fontSize=19;fontColor=#ffffff;fontStyle=1;strokeColor=#006EAF;fillColor=#1ba1e2;" vertex="1" parent="1">
          <mxGeometry x="354" y="3330" width="120" height="60" as="geometry" />
        </mxCell>
        <mxCell id="EJp7cVd_BcKbrbgZlSUE-55" value="" style="edgeStyle=orthogonalEdgeStyle;rounded=0;orthogonalLoop=1;jettySize=auto;html=1;" edge="1" parent="1" source="EJp7cVd_BcKbrbgZlSUE-52" target="EJp7cVd_BcKbrbgZlSUE-54">
          <mxGeometry relative="1" as="geometry" />
        </mxCell>
        <mxCell id="EJp7cVd_BcKbrbgZlSUE-52" value="点击标签" style="whiteSpace=wrap;html=1;rounded=1;fontSize=19;fontColor=#ffffff;fontStyle=1;strokeColor=#006EAF;fillColor=#1ba1e2;" vertex="1" parent="1">
          <mxGeometry x="354" y="3430" width="120" height="60" as="geometry" />
        </mxCell>
        <mxCell id="EJp7cVd_BcKbrbgZlSUE-57" value="" style="edgeStyle=orthogonalEdgeStyle;rounded=0;orthogonalLoop=1;jettySize=auto;html=1;" edge="1" parent="1" source="EJp7cVd_BcKbrbgZlSUE-54" target="EJp7cVd_BcKbrbgZlSUE-56">
          <mxGeometry relative="1" as="geometry" />
        </mxCell>
        <mxCell id="EJp7cVd_BcKbrbgZlSUE-54" value="分类详细页" style="whiteSpace=wrap;html=1;rounded=1;fontSize=19;fontColor=#ffffff;fontStyle=1;strokeColor=#006EAF;fillColor=#1ba1e2;" vertex="1" parent="1">
          <mxGeometry x="354" y="3530" width="120" height="60" as="geometry" />
        </mxCell>
        <mxCell id="EJp7cVd_BcKbrbgZlSUE-59" value="" style="edgeStyle=orthogonalEdgeStyle;rounded=0;orthogonalLoop=1;jettySize=auto;html=1;" edge="1" parent="1" source="EJp7cVd_BcKbrbgZlSUE-56" target="EJp7cVd_BcKbrbgZlSUE-58">
          <mxGeometry relative="1" as="geometry" />
        </mxCell>
        <mxCell id="EJp7cVd_BcKbrbgZlSUE-67" value="" style="edgeStyle=orthogonalEdgeStyle;rounded=0;orthogonalLoop=1;jettySize=auto;html=1;" edge="1" parent="1" source="EJp7cVd_BcKbrbgZlSUE-56" target="EJp7cVd_BcKbrbgZlSUE-66">
          <mxGeometry relative="1" as="geometry" />
        </mxCell>
        <mxCell id="EJp7cVd_BcKbrbgZlSUE-56" value="详情页展示" style="whiteSpace=wrap;html=1;rounded=1;fontSize=19;fontColor=#ffffff;fontStyle=1;strokeColor=#006EAF;fillColor=#1ba1e2;" vertex="1" parent="1">
          <mxGeometry x="354" y="3630" width="120" height="60" as="geometry" />
        </mxCell>
        <mxCell id="EJp7cVd_BcKbrbgZlSUE-61" value="" style="edgeStyle=orthogonalEdgeStyle;rounded=0;orthogonalLoop=1;jettySize=auto;html=1;" edge="1" parent="1" source="EJp7cVd_BcKbrbgZlSUE-58" target="EJp7cVd_BcKbrbgZlSUE-60">
          <mxGeometry relative="1" as="geometry" />
        </mxCell>
        <mxCell id="EJp7cVd_BcKbrbgZlSUE-58" value="列表点击" style="whiteSpace=wrap;html=1;rounded=1;fontSize=19;fontColor=#ffffff;fontStyle=1;strokeColor=#006EAF;fillColor=#1ba1e2;" vertex="1" parent="1">
          <mxGeometry x="294" y="3740" width="120" height="60" as="geometry" />
        </mxCell>
        <mxCell id="EJp7cVd_BcKbrbgZlSUE-63" value="" style="edgeStyle=orthogonalEdgeStyle;rounded=0;orthogonalLoop=1;jettySize=auto;html=1;" edge="1" parent="1" source="EJp7cVd_BcKbrbgZlSUE-60" target="EJp7cVd_BcKbrbgZlSUE-62">
          <mxGeometry relative="1" as="geometry" />
        </mxCell>
        <mxCell id="EJp7cVd_BcKbrbgZlSUE-60" value="记账页面" style="whiteSpace=wrap;html=1;rounded=1;fontSize=19;fontColor=#ffffff;fontStyle=1;strokeColor=#006EAF;fillColor=#1ba1e2;" vertex="1" parent="1">
          <mxGeometry x="294" y="3830" width="120" height="60" as="geometry" />
        </mxCell>
        <mxCell id="EJp7cVd_BcKbrbgZlSUE-62" value="修改保存" style="whiteSpace=wrap;html=1;rounded=1;fontSize=19;fontColor=#ffffff;fontStyle=1;strokeColor=#006EAF;fillColor=#1ba1e2;" vertex="1" parent="1">
          <mxGeometry x="294" y="3920" width="120" height="60" as="geometry" />
        </mxCell>
        <mxCell id="EJp7cVd_BcKbrbgZlSUE-69" value="" style="edgeStyle=orthogonalEdgeStyle;rounded=0;orthogonalLoop=1;jettySize=auto;html=1;" edge="1" parent="1" source="EJp7cVd_BcKbrbgZlSUE-66" target="EJp7cVd_BcKbrbgZlSUE-68">
          <mxGeometry relative="1" as="geometry" />
        </mxCell>
        <mxCell id="EJp7cVd_BcKbrbgZlSUE-66" value="列表长按" style="whiteSpace=wrap;html=1;rounded=1;fontSize=19;fontColor=#ffffff;fontStyle=1;strokeColor=#006EAF;fillColor=#1ba1e2;" vertex="1" parent="1">
          <mxGeometry x="430" y="3740" width="120" height="60" as="geometry" />
        </mxCell>
        <mxCell id="EJp7cVd_BcKbrbgZlSUE-68" value="选择删除" style="whiteSpace=wrap;html=1;rounded=1;fontSize=19;fontColor=#ffffff;fontStyle=1;strokeColor=#006EAF;fillColor=#1ba1e2;" vertex="1" parent="1">
          <mxGeometry x="430" y="3830" width="120" height="60" as="geometry" />
        </mxCell>
        <mxCell id="EJp7cVd_BcKbrbgZlSUE-72" value="" style="edgeStyle=orthogonalEdgeStyle;rounded=0;orthogonalLoop=1;jettySize=auto;html=1;" edge="1" parent="1" source="EJp7cVd_BcKbrbgZlSUE-70" target="EJp7cVd_BcKbrbgZlSUE-71">
          <mxGeometry relative="1" as="geometry" />
        </mxCell>
        <mxCell id="EJp7cVd_BcKbrbgZlSUE-87" value="" style="edgeStyle=orthogonalEdgeStyle;rounded=0;orthogonalLoop=1;jettySize=auto;html=1;" edge="1" parent="1" source="EJp7cVd_BcKbrbgZlSUE-70" target="EJp7cVd_BcKbrbgZlSUE-86">
          <mxGeometry relative="1" as="geometry">
            <Array as="points">
              <mxPoint x="914" y="3380" />
              <mxPoint x="1240" y="3380" />
            </Array>
          </mxGeometry>
        </mxCell>
        <mxCell id="EJp7cVd_BcKbrbgZlSUE-95" value="" style="edgeStyle=orthogonalEdgeStyle;rounded=0;orthogonalLoop=1;jettySize=auto;html=1;" edge="1" parent="1" source="EJp7cVd_BcKbrbgZlSUE-70" target="EJp7cVd_BcKbrbgZlSUE-94">
          <mxGeometry relative="1" as="geometry" />
        </mxCell>
        <mxCell id="EJp7cVd_BcKbrbgZlSUE-70" value="记账模块" style="whiteSpace=wrap;html=1;rounded=1;fontSize=19;fontColor=#ffffff;fontStyle=1;strokeColor=#006EAF;fillColor=#1ba1e2;" vertex="1" parent="1">
          <mxGeometry x="854" y="3190" width="120" height="60" as="geometry" />
        </mxCell>
        <mxCell id="EJp7cVd_BcKbrbgZlSUE-74" value="" style="edgeStyle=orthogonalEdgeStyle;rounded=0;orthogonalLoop=1;jettySize=auto;html=1;" edge="1" parent="1" source="EJp7cVd_BcKbrbgZlSUE-71" target="EJp7cVd_BcKbrbgZlSUE-73">
          <mxGeometry relative="1" as="geometry" />
        </mxCell>
        <mxCell id="EJp7cVd_BcKbrbgZlSUE-71" value="选择分类" style="whiteSpace=wrap;html=1;rounded=1;fontSize=19;fontColor=#ffffff;fontStyle=1;strokeColor=#006EAF;fillColor=#1ba1e2;" vertex="1" parent="1">
          <mxGeometry x="780" y="3500" width="120" height="60" as="geometry" />
        </mxCell>
        <mxCell id="EJp7cVd_BcKbrbgZlSUE-76" value="" style="edgeStyle=orthogonalEdgeStyle;rounded=0;orthogonalLoop=1;jettySize=auto;html=1;" edge="1" parent="1" source="EJp7cVd_BcKbrbgZlSUE-73" target="EJp7cVd_BcKbrbgZlSUE-75">
          <mxGeometry relative="1" as="geometry" />
        </mxCell>
        <mxCell id="EJp7cVd_BcKbrbgZlSUE-73" value="设置金额" style="whiteSpace=wrap;html=1;rounded=1;fontSize=19;fontColor=#ffffff;fontStyle=1;strokeColor=#006EAF;fillColor=#1ba1e2;" vertex="1" parent="1">
          <mxGeometry x="780" y="3640" width="120" height="60" as="geometry" />
        </mxCell>
        <mxCell id="EJp7cVd_BcKbrbgZlSUE-78" value="" style="edgeStyle=orthogonalEdgeStyle;rounded=0;orthogonalLoop=1;jettySize=auto;html=1;" edge="1" parent="1" source="EJp7cVd_BcKbrbgZlSUE-75" target="EJp7cVd_BcKbrbgZlSUE-77">
          <mxGeometry relative="1" as="geometry" />
        </mxCell>
        <mxCell id="EJp7cVd_BcKbrbgZlSUE-75" value="设置日期" style="whiteSpace=wrap;html=1;rounded=1;fontSize=19;fontColor=#ffffff;fontStyle=1;strokeColor=#006EAF;fillColor=#1ba1e2;" vertex="1" parent="1">
          <mxGeometry x="780" y="3780" width="120" height="60" as="geometry" />
        </mxCell>
        <mxCell id="EJp7cVd_BcKbrbgZlSUE-80" value="" style="edgeStyle=orthogonalEdgeStyle;rounded=0;orthogonalLoop=1;jettySize=auto;html=1;" edge="1" parent="1" source="EJp7cVd_BcKbrbgZlSUE-77" target="EJp7cVd_BcKbrbgZlSUE-79">
          <mxGeometry relative="1" as="geometry" />
        </mxCell>
        <mxCell id="EJp7cVd_BcKbrbgZlSUE-77" value="输入备注&lt;br&gt;（语音输入）" style="whiteSpace=wrap;html=1;rounded=1;fontSize=19;fontColor=#ffffff;fontStyle=1;strokeColor=#006EAF;fillColor=#1ba1e2;" vertex="1" parent="1">
          <mxGeometry x="780" y="3920" width="120" height="60" as="geometry" />
        </mxCell>
        <mxCell id="EJp7cVd_BcKbrbgZlSUE-79" value="点击保存" style="whiteSpace=wrap;html=1;rounded=1;fontSize=19;fontColor=#ffffff;fontStyle=1;strokeColor=#006EAF;fillColor=#1ba1e2;" vertex="1" parent="1">
          <mxGeometry x="780" y="4060" width="120" height="60" as="geometry" />
        </mxCell>
        <mxCell id="EJp7cVd_BcKbrbgZlSUE-89" value="" style="edgeStyle=orthogonalEdgeStyle;rounded=0;orthogonalLoop=1;jettySize=auto;html=1;" edge="1" parent="1" source="EJp7cVd_BcKbrbgZlSUE-86" target="EJp7cVd_BcKbrbgZlSUE-88">
          <mxGeometry relative="1" as="geometry" />
        </mxCell>
        <mxCell id="EJp7cVd_BcKbrbgZlSUE-86" value="点击分类管理" style="whiteSpace=wrap;html=1;rounded=1;fontSize=19;fontColor=#ffffff;fontStyle=1;strokeColor=#006EAF;fillColor=#1ba1e2;" vertex="1" parent="1">
          <mxGeometry x="1180" y="3390" width="120" height="60" as="geometry" />
        </mxCell>
        <mxCell id="EJp7cVd_BcKbrbgZlSUE-91" value="" style="edgeStyle=orthogonalEdgeStyle;rounded=0;orthogonalLoop=1;jettySize=auto;html=1;" edge="1" parent="1" source="EJp7cVd_BcKbrbgZlSUE-88" target="EJp7cVd_BcKbrbgZlSUE-90">
          <mxGeometry relative="1" as="geometry" />
        </mxCell>
        <mxCell id="EJp7cVd_BcKbrbgZlSUE-88" value="点击新增分类" style="whiteSpace=wrap;html=1;rounded=1;fontSize=19;fontColor=#ffffff;fontStyle=1;strokeColor=#006EAF;fillColor=#1ba1e2;" vertex="1" parent="1">
          <mxGeometry x="1180" y="3490" width="120" height="60" as="geometry" />
        </mxCell>
        <mxCell id="EJp7cVd_BcKbrbgZlSUE-93" value="" style="edgeStyle=orthogonalEdgeStyle;rounded=0;orthogonalLoop=1;jettySize=auto;html=1;" edge="1" parent="1" source="EJp7cVd_BcKbrbgZlSUE-90" target="EJp7cVd_BcKbrbgZlSUE-92">
          <mxGeometry relative="1" as="geometry" />
        </mxCell>
        <mxCell id="EJp7cVd_BcKbrbgZlSUE-90" value="输入分类名称" style="whiteSpace=wrap;html=1;rounded=1;fontSize=19;fontColor=#ffffff;fontStyle=1;strokeColor=#006EAF;fillColor=#1ba1e2;" vertex="1" parent="1">
          <mxGeometry x="1180" y="3590" width="120" height="60" as="geometry" />
        </mxCell>
        <mxCell id="EJp7cVd_BcKbrbgZlSUE-97" value="" style="edgeStyle=orthogonalEdgeStyle;rounded=0;orthogonalLoop=1;jettySize=auto;html=1;" edge="1" parent="1" source="EJp7cVd_BcKbrbgZlSUE-92" target="EJp7cVd_BcKbrbgZlSUE-96">
          <mxGeometry relative="1" as="geometry" />
        </mxCell>
        <mxCell id="EJp7cVd_BcKbrbgZlSUE-92" value="选择分类图片" style="whiteSpace=wrap;html=1;rounded=1;fontSize=19;fontColor=#ffffff;fontStyle=1;strokeColor=#006EAF;fillColor=#1ba1e2;" vertex="1" parent="1">
          <mxGeometry x="1180" y="3700" width="120" height="60" as="geometry" />
        </mxCell>
        <mxCell id="EJp7cVd_BcKbrbgZlSUE-94" value="是否有分类" style="rhombus;whiteSpace=wrap;html=1;rounded=1;fontSize=19;fontColor=#ffffff;fontStyle=1;strokeColor=#006EAF;fillColor=#1ba1e2;" vertex="1" parent="1">
          <mxGeometry x="841" y="3330" width="146" height="90" as="geometry" />
        </mxCell>
        <mxCell id="EJp7cVd_BcKbrbgZlSUE-99" value="" style="edgeStyle=orthogonalEdgeStyle;rounded=0;orthogonalLoop=1;jettySize=auto;html=1;" edge="1" parent="1" source="EJp7cVd_BcKbrbgZlSUE-96" target="EJp7cVd_BcKbrbgZlSUE-98">
          <mxGeometry relative="1" as="geometry" />
        </mxCell>
        <mxCell id="EJp7cVd_BcKbrbgZlSUE-103" value="" style="edgeStyle=orthogonalEdgeStyle;rounded=0;orthogonalLoop=1;jettySize=auto;html=1;" edge="1" parent="1" source="EJp7cVd_BcKbrbgZlSUE-96" target="EJp7cVd_BcKbrbgZlSUE-102">
          <mxGeometry relative="1" as="geometry" />
        </mxCell>
        <mxCell id="EJp7cVd_BcKbrbgZlSUE-96" value="是否有图片" style="rhombus;whiteSpace=wrap;html=1;rounded=1;fontSize=19;fontColor=#ffffff;fontStyle=1;strokeColor=#006EAF;fillColor=#1ba1e2;" vertex="1" parent="1">
          <mxGeometry x="1165" y="3810" width="150" height="80" as="geometry" />
        </mxCell>
        <mxCell id="EJp7cVd_BcKbrbgZlSUE-101" value="" style="edgeStyle=orthogonalEdgeStyle;rounded=0;orthogonalLoop=1;jettySize=auto;html=1;" edge="1" parent="1" source="EJp7cVd_BcKbrbgZlSUE-98" target="EJp7cVd_BcKbrbgZlSUE-100">
          <mxGeometry relative="1" as="geometry" />
        </mxCell>
        <mxCell id="EJp7cVd_BcKbrbgZlSUE-98" value="选择图片管理" style="whiteSpace=wrap;html=1;rounded=1;fontSize=19;fontColor=#ffffff;fontStyle=1;strokeColor=#006EAF;fillColor=#1ba1e2;" vertex="1" parent="1">
          <mxGeometry x="1380" y="3820" width="120" height="60" as="geometry" />
        </mxCell>
        <mxCell id="EJp7cVd_BcKbrbgZlSUE-104" style="edgeStyle=orthogonalEdgeStyle;rounded=0;orthogonalLoop=1;jettySize=auto;html=1;entryX=1;entryY=0.5;entryDx=0;entryDy=0;" edge="1" parent="1" source="EJp7cVd_BcKbrbgZlSUE-100" target="EJp7cVd_BcKbrbgZlSUE-102">
          <mxGeometry relative="1" as="geometry" />
        </mxCell>
        <mxCell id="EJp7cVd_BcKbrbgZlSUE-100" value="点击新增图片" style="whiteSpace=wrap;html=1;rounded=1;fontSize=19;fontColor=#ffffff;fontStyle=1;strokeColor=#006EAF;fillColor=#1ba1e2;" vertex="1" parent="1">
          <mxGeometry x="1380" y="3908" width="120" height="60" as="geometry" />
        </mxCell>
        <mxCell id="EJp7cVd_BcKbrbgZlSUE-106" value="" style="edgeStyle=orthogonalEdgeStyle;rounded=0;orthogonalLoop=1;jettySize=auto;html=1;" edge="1" parent="1" source="EJp7cVd_BcKbrbgZlSUE-102" target="EJp7cVd_BcKbrbgZlSUE-105">
          <mxGeometry relative="1" as="geometry" />
        </mxCell>
        <mxCell id="EJp7cVd_BcKbrbgZlSUE-102" value="选择图片" style="whiteSpace=wrap;html=1;rounded=1;fontSize=19;fontColor=#ffffff;fontStyle=1;strokeColor=#006EAF;fillColor=#1ba1e2;" vertex="1" parent="1">
          <mxGeometry x="1180" y="3908" width="120" height="60" as="geometry" />
        </mxCell>
        <mxCell id="EJp7cVd_BcKbrbgZlSUE-107" style="edgeStyle=orthogonalEdgeStyle;rounded=0;orthogonalLoop=1;jettySize=auto;html=1;entryX=1;entryY=0.75;entryDx=0;entryDy=0;" edge="1" parent="1" source="EJp7cVd_BcKbrbgZlSUE-105" target="EJp7cVd_BcKbrbgZlSUE-73">
          <mxGeometry relative="1" as="geometry" />
        </mxCell>
        <mxCell id="EJp7cVd_BcKbrbgZlSUE-105" value="点击保存" style="whiteSpace=wrap;html=1;rounded=1;fontSize=19;fontColor=#ffffff;fontStyle=1;strokeColor=#006EAF;fillColor=#1ba1e2;" vertex="1" parent="1">
          <mxGeometry x="1181" y="4000" width="120" height="60" as="geometry" />
        </mxCell>
        <mxCell id="EJp7cVd_BcKbrbgZlSUE-109" value="&lt;font style=&quot;font-size: 18px&quot;&gt;没有分类&lt;/font&gt;" style="text;html=1;strokeColor=none;fillColor=none;align=center;verticalAlign=middle;whiteSpace=wrap;rounded=0;" vertex="1" parent="1">
          <mxGeometry x="1050" y="3350" width="90" height="20" as="geometry" />
        </mxCell>
        <mxCell id="EJp7cVd_BcKbrbgZlSUE-110" value="&lt;span style=&quot;font-size: 18px&quot;&gt;已有分类&lt;/span&gt;" style="text;html=1;strokeColor=none;fillColor=none;align=center;verticalAlign=middle;whiteSpace=wrap;rounded=0;" vertex="1" parent="1">
          <mxGeometry x="850" y="3450" width="90" height="20" as="geometry" />
        </mxCell>
        <mxCell id="EJp7cVd_BcKbrbgZlSUE-111" value="&lt;span style=&quot;font-size: 18px&quot;&gt;无图片&lt;/span&gt;" style="text;html=1;strokeColor=none;fillColor=none;align=center;verticalAlign=middle;whiteSpace=wrap;rounded=0;" vertex="1" parent="1">
          <mxGeometry x="1300" y="3800" width="90" height="20" as="geometry" />
        </mxCell>
        <mxCell id="EJp7cVd_BcKbrbgZlSUE-112" value="&lt;span style=&quot;font-size: 18px&quot;&gt;有图片&lt;/span&gt;" style="text;html=1;strokeColor=none;fillColor=none;align=center;verticalAlign=middle;whiteSpace=wrap;rounded=0;" vertex="1" parent="1">
          <mxGeometry x="1130" y="3880" width="90" height="20" as="geometry" />
        </mxCell>
        <mxCell id="EJp7cVd_BcKbrbgZlSUE-133" value="" style="edgeStyle=orthogonalEdgeStyle;rounded=0;orthogonalLoop=1;jettySize=auto;html=1;" edge="1" parent="1" source="EJp7cVd_BcKbrbgZlSUE-134" target="EJp7cVd_BcKbrbgZlSUE-136">
          <mxGeometry relative="1" as="geometry">
            <Array as="points">
              <mxPoint x="992" y="4470" />
              <mxPoint x="835" y="4470" />
            </Array>
          </mxGeometry>
        </mxCell>
        <mxCell id="EJp7cVd_BcKbrbgZlSUE-153" value="" style="edgeStyle=orthogonalEdgeStyle;rounded=0;orthogonalLoop=1;jettySize=auto;html=1;startArrow=none;" edge="1" parent="1" source="EJp7cVd_BcKbrbgZlSUE-154" target="EJp7cVd_BcKbrbgZlSUE-152">
          <mxGeometry relative="1" as="geometry">
            <Array as="points">
              <mxPoint x="1200" y="4470" />
            </Array>
          </mxGeometry>
        </mxCell>
        <mxCell id="EJp7cVd_BcKbrbgZlSUE-155" value="" style="edgeStyle=orthogonalEdgeStyle;rounded=0;orthogonalLoop=1;jettySize=auto;html=1;" edge="1" parent="1" source="EJp7cVd_BcKbrbgZlSUE-134" target="EJp7cVd_BcKbrbgZlSUE-154">
          <mxGeometry relative="1" as="geometry" />
        </mxCell>
        <mxCell id="EJp7cVd_BcKbrbgZlSUE-134" value="点击分类管理" style="whiteSpace=wrap;html=1;rounded=1;fontSize=19;fontColor=#ffffff;fontStyle=1;strokeColor=#006EAF;fillColor=#1ba1e2;" vertex="1" parent="1">
          <mxGeometry x="933.5" y="4340" width="120" height="60" as="geometry" />
        </mxCell>
        <mxCell id="EJp7cVd_BcKbrbgZlSUE-135" value="" style="edgeStyle=orthogonalEdgeStyle;rounded=0;orthogonalLoop=1;jettySize=auto;html=1;" edge="1" parent="1" source="EJp7cVd_BcKbrbgZlSUE-136" target="EJp7cVd_BcKbrbgZlSUE-138">
          <mxGeometry relative="1" as="geometry" />
        </mxCell>
        <mxCell id="EJp7cVd_BcKbrbgZlSUE-136" value="点击新增分类" style="whiteSpace=wrap;html=1;rounded=1;fontSize=19;fontColor=#ffffff;fontStyle=1;strokeColor=#006EAF;fillColor=#1ba1e2;" vertex="1" parent="1">
          <mxGeometry x="775" y="4510" width="120" height="60" as="geometry" />
        </mxCell>
        <mxCell id="EJp7cVd_BcKbrbgZlSUE-137" value="" style="edgeStyle=orthogonalEdgeStyle;rounded=0;orthogonalLoop=1;jettySize=auto;html=1;" edge="1" parent="1" source="EJp7cVd_BcKbrbgZlSUE-138" target="EJp7cVd_BcKbrbgZlSUE-140">
          <mxGeometry relative="1" as="geometry" />
        </mxCell>
        <mxCell id="EJp7cVd_BcKbrbgZlSUE-138" value="输入分类名称" style="whiteSpace=wrap;html=1;rounded=1;fontSize=19;fontColor=#ffffff;fontStyle=1;strokeColor=#006EAF;fillColor=#1ba1e2;" vertex="1" parent="1">
          <mxGeometry x="775" y="4610" width="120" height="60" as="geometry" />
        </mxCell>
        <mxCell id="EJp7cVd_BcKbrbgZlSUE-139" value="" style="edgeStyle=orthogonalEdgeStyle;rounded=0;orthogonalLoop=1;jettySize=auto;html=1;" edge="1" parent="1" source="EJp7cVd_BcKbrbgZlSUE-140" target="EJp7cVd_BcKbrbgZlSUE-143">
          <mxGeometry relative="1" as="geometry" />
        </mxCell>
        <mxCell id="EJp7cVd_BcKbrbgZlSUE-140" value="选择分类图片" style="whiteSpace=wrap;html=1;rounded=1;fontSize=19;fontColor=#ffffff;fontStyle=1;strokeColor=#006EAF;fillColor=#1ba1e2;" vertex="1" parent="1">
          <mxGeometry x="775" y="4720" width="120" height="60" as="geometry" />
        </mxCell>
        <mxCell id="EJp7cVd_BcKbrbgZlSUE-141" value="" style="edgeStyle=orthogonalEdgeStyle;rounded=0;orthogonalLoop=1;jettySize=auto;html=1;" edge="1" parent="1" source="EJp7cVd_BcKbrbgZlSUE-143" target="EJp7cVd_BcKbrbgZlSUE-145">
          <mxGeometry relative="1" as="geometry" />
        </mxCell>
        <mxCell id="EJp7cVd_BcKbrbgZlSUE-142" value="" style="edgeStyle=orthogonalEdgeStyle;rounded=0;orthogonalLoop=1;jettySize=auto;html=1;" edge="1" parent="1" source="EJp7cVd_BcKbrbgZlSUE-143" target="EJp7cVd_BcKbrbgZlSUE-149">
          <mxGeometry relative="1" as="geometry" />
        </mxCell>
        <mxCell id="EJp7cVd_BcKbrbgZlSUE-143" value="是否有图片" style="rhombus;whiteSpace=wrap;html=1;rounded=1;fontSize=19;fontColor=#ffffff;fontStyle=1;strokeColor=#006EAF;fillColor=#1ba1e2;" vertex="1" parent="1">
          <mxGeometry x="760" y="4830" width="150" height="80" as="geometry" />
        </mxCell>
        <mxCell id="EJp7cVd_BcKbrbgZlSUE-144" value="" style="edgeStyle=orthogonalEdgeStyle;rounded=0;orthogonalLoop=1;jettySize=auto;html=1;" edge="1" parent="1" source="EJp7cVd_BcKbrbgZlSUE-145" target="EJp7cVd_BcKbrbgZlSUE-147">
          <mxGeometry relative="1" as="geometry" />
        </mxCell>
        <mxCell id="EJp7cVd_BcKbrbgZlSUE-145" value="选择图片管理" style="whiteSpace=wrap;html=1;rounded=1;fontSize=19;fontColor=#ffffff;fontStyle=1;strokeColor=#006EAF;fillColor=#1ba1e2;" vertex="1" parent="1">
          <mxGeometry x="975" y="4840" width="120" height="60" as="geometry" />
        </mxCell>
        <mxCell id="EJp7cVd_BcKbrbgZlSUE-146" style="edgeStyle=orthogonalEdgeStyle;rounded=0;orthogonalLoop=1;jettySize=auto;html=1;entryX=1;entryY=0.5;entryDx=0;entryDy=0;" edge="1" parent="1" source="EJp7cVd_BcKbrbgZlSUE-147" target="EJp7cVd_BcKbrbgZlSUE-149">
          <mxGeometry relative="1" as="geometry" />
        </mxCell>
        <mxCell id="EJp7cVd_BcKbrbgZlSUE-147" value="点击新增图片" style="whiteSpace=wrap;html=1;rounded=1;fontSize=19;fontColor=#ffffff;fontStyle=1;strokeColor=#006EAF;fillColor=#1ba1e2;" vertex="1" parent="1">
          <mxGeometry x="975" y="4928" width="120" height="60" as="geometry" />
        </mxCell>
        <mxCell id="EJp7cVd_BcKbrbgZlSUE-148" value="" style="edgeStyle=orthogonalEdgeStyle;rounded=0;orthogonalLoop=1;jettySize=auto;html=1;" edge="1" parent="1" source="EJp7cVd_BcKbrbgZlSUE-149" target="EJp7cVd_BcKbrbgZlSUE-150">
          <mxGeometry relative="1" as="geometry" />
        </mxCell>
        <mxCell id="EJp7cVd_BcKbrbgZlSUE-149" value="选择图片" style="whiteSpace=wrap;html=1;rounded=1;fontSize=19;fontColor=#ffffff;fontStyle=1;strokeColor=#006EAF;fillColor=#1ba1e2;" vertex="1" parent="1">
          <mxGeometry x="775" y="4928" width="120" height="60" as="geometry" />
        </mxCell>
        <mxCell id="EJp7cVd_BcKbrbgZlSUE-150" value="点击保存" style="whiteSpace=wrap;html=1;rounded=1;fontSize=19;fontColor=#ffffff;fontStyle=1;strokeColor=#006EAF;fillColor=#1ba1e2;" vertex="1" parent="1">
          <mxGeometry x="776" y="5020" width="120" height="60" as="geometry" />
        </mxCell>
        <mxCell id="EJp7cVd_BcKbrbgZlSUE-151" value="&lt;span style=&quot;font-size: 18px&quot;&gt;无图片&lt;/span&gt;" style="text;html=1;strokeColor=none;fillColor=none;align=center;verticalAlign=middle;whiteSpace=wrap;rounded=0;" vertex="1" parent="1">
          <mxGeometry x="895" y="4820" width="90" height="20" as="geometry" />
        </mxCell>
        <mxCell id="EJp7cVd_BcKbrbgZlSUE-158" value="" style="edgeStyle=orthogonalEdgeStyle;rounded=0;orthogonalLoop=1;jettySize=auto;html=1;" edge="1" parent="1" source="EJp7cVd_BcKbrbgZlSUE-152" target="EJp7cVd_BcKbrbgZlSUE-157">
          <mxGeometry relative="1" as="geometry" />
        </mxCell>
        <mxCell id="EJp7cVd_BcKbrbgZlSUE-152" value="点击分类" style="whiteSpace=wrap;html=1;rounded=1;fontSize=19;fontColor=#ffffff;fontStyle=1;strokeColor=#006EAF;fillColor=#1ba1e2;" vertex="1" parent="1">
          <mxGeometry x="1140" y="4526" width="120" height="60" as="geometry" />
        </mxCell>
        <mxCell id="EJp7cVd_BcKbrbgZlSUE-154" value="判断是否有分类" style="rhombus;whiteSpace=wrap;html=1;rounded=1;fontSize=19;fontColor=#ffffff;fontStyle=1;strokeColor=#006EAF;fillColor=#1ba1e2;" vertex="1" parent="1">
          <mxGeometry x="896" y="4430" width="195" height="80" as="geometry" />
        </mxCell>
        <mxCell id="EJp7cVd_BcKbrbgZlSUE-156" value="" style="edgeStyle=orthogonalEdgeStyle;rounded=0;orthogonalLoop=1;jettySize=auto;html=1;endArrow=none;" edge="1" parent="1" source="EJp7cVd_BcKbrbgZlSUE-134" target="EJp7cVd_BcKbrbgZlSUE-154">
          <mxGeometry relative="1" as="geometry">
            <mxPoint x="934" y="4270" as="sourcePoint" />
            <mxPoint x="1225.0588235294122" y="4520" as="targetPoint" />
            <Array as="points" />
          </mxGeometry>
        </mxCell>
        <mxCell id="EJp7cVd_BcKbrbgZlSUE-157" value="直接选择" style="whiteSpace=wrap;html=1;rounded=1;fontSize=19;fontColor=#ffffff;fontStyle=1;strokeColor=#006EAF;fillColor=#1ba1e2;" vertex="1" parent="1">
          <mxGeometry x="1140" y="4616" width="120" height="60" as="geometry" />
        </mxCell>
      </root>
    </mxGraphModel>
  </diagram>
</mxfile>
